<?xml version="1.0" encoding="UTF-8" ?>
<!DOCTYPE svg PUBLIC "-//W3C//DTD SVG 1.1//EN" "http://www.w3.org/Graphics/SVG/1.1/DTD/svg11.dtd">
<svg width="500pt" height="523pt" viewBox="0 0 500 523" version="1.1" xmlns="http://www.w3.org/2000/svg">
<g id="#000000ff">
<path fill="#000000" opacity="1.00" d=" M 1.53 1.65 C 167.54 1.65 333.56 1.64 499.58 1.66 C 497.09 26.25 495.36 50.91 492.87 75.51 C 491.14 93.95 489.46 112.39 487.95 130.85 C 487.87 129.29 487.82 127.73 487.74 126.17 L 487.07 126.19 C 487.22 128.78 487.74 131.36 487.57 133.97 C 483.33 178.70 479.39 223.46 475.11 268.18 C 469.75 313.91 458.78 359.54 437.52 400.62 C 422.34 430.11 401.61 456.97 375.62 477.71 C 344.50 502.61 305.90 518.32 266.07 521.17 C 243.23 522.51 220.04 521.13 197.90 515.09 C 178.90 510.22 160.71 502.35 143.96 492.18 C 119.00 476.94 97.61 456.15 80.71 432.34 C 56.06 397.63 40.91 357.02 31.96 315.62 C 28.17 296.90 25.12 278.00 23.57 258.96 C 21.18 228.93 18.12 198.96 16.10 168.90 C 15.89 170.30 15.69 171.69 15.49 173.08 C 15.68 170.39 15.79 167.69 15.60 165.00 C 10.73 110.57 6.13 56.11 1.53 1.65 M 12.57 12.51 C 14.19 31.33 15.54 50.17 16.90 69.01 C 21.66 128.34 26.55 187.67 31.41 246.99 C 35.16 300.95 46.64 355.40 72.96 403.12 C 87.69 429.76 107.20 453.98 131.26 472.76 C 153.75 490.40 180.11 503.13 208.01 509.43 C 227.64 514.18 247.99 514.45 268.05 513.38 C 306.99 509.87 344.37 493.42 374.09 468.17 C 401.58 444.92 422.54 414.63 437.02 381.82 C 455.54 340.30 464.30 295.08 467.96 249.96 C 471.07 212.31 474.71 174.70 477.75 137.05 C 481.69 95.56 484.73 54.00 488.51 12.50 C 329.86 12.47 171.22 12.45 12.57 12.51 Z" />
<path fill="#000000" opacity="1.00" d=" M 209.33 63.30 C 212.03 59.94 213.28 55.72 215.27 51.95 C 214.44 58.51 213.83 65.13 212.26 71.56 C 211.73 73.86 210.25 75.70 207.85 76.18 C 214.31 80.16 220.74 84.54 225.16 90.85 C 234.83 102.12 238.71 117.33 238.42 131.95 C 237.79 146.08 233.43 159.63 229.69 173.15 C 228.55 175.96 230.53 178.44 231.77 180.78 C 232.11 180.72 232.78 180.61 233.11 180.55 C 237.53 164.67 242.23 148.62 242.63 132.02 C 242.90 123.49 242.63 114.68 239.12 106.75 C 234.11 94.91 226.59 83.51 215.52 76.56 C 216.35 71.77 217.26 67.00 218.41 62.27 C 224.03 63.13 229.68 63.66 235.37 63.71 C 232.73 65.18 229.99 66.47 227.46 68.12 C 232.54 68.61 237.89 67.23 242.77 69.22 C 245.68 70.29 248.77 70.59 251.84 70.83 C 247.92 75.35 241.46 75.17 236.72 78.36 C 244.79 79.32 253.02 77.59 261.04 79.30 C 266.56 80.02 271.60 82.89 277.25 82.99 C 275.93 86.36 271.90 85.93 268.93 86.19 C 264.53 85.81 261.21 89.27 257.12 90.19 C 254.66 90.55 252.18 90.67 249.72 91.02 C 251.98 93.17 255.22 92.47 258.05 92.71 C 261.34 92.81 264.49 93.90 267.58 94.94 C 265.18 97.17 261.78 97.62 258.85 98.84 C 258.47 99.36 257.72 100.39 257.34 100.91 C 260.20 101.61 263.02 102.72 266.01 102.62 C 269.76 102.81 273.43 101.05 277.17 101.94 C 281.11 102.82 284.71 105.00 288.86 104.91 C 288.75 105.68 288.65 106.45 288.55 107.23 C 284.26 109.04 279.60 108.98 275.09 109.59 C 271.23 111.82 266.92 112.88 262.62 113.89 C 263.40 114.19 264.94 114.81 265.72 115.12 C 264.82 116.12 263.93 117.12 263.03 118.12 C 265.57 119.62 268.07 121.35 270.98 122.05 C 275.23 122.81 279.52 121.60 283.77 121.89 C 287.32 122.99 290.59 124.85 294.12 126.03 C 290.52 128.47 286.11 128.37 281.94 128.24 C 277.44 127.90 273.49 130.66 269.05 130.82 C 266.06 130.94 263.07 130.77 260.09 130.93 C 262.20 132.39 264.45 133.72 266.97 134.36 C 271.50 135.89 276.45 134.74 280.96 136.38 C 283.82 137.41 286.54 138.76 289.37 139.87 C 285.73 143.55 280.45 141.06 276.03 140.78 C 272.97 141.52 270.29 143.67 267.04 143.56 C 263.86 143.43 260.67 143.02 257.49 143.36 C 260.54 146.89 265.80 146.27 269.35 149.07 C 267.27 149.38 265.18 149.59 263.10 149.87 C 260.84 150.70 258.41 150.78 256.03 150.99 C 257.23 152.20 258.44 153.39 259.68 154.56 C 260.81 154.63 261.94 154.71 263.08 154.79 C 268.84 155.81 274.79 157.54 279.40 161.25 C 272.60 162.01 265.61 161.04 259.02 163.35 C 256.80 162.72 254.59 162.09 252.40 161.40 C 252.36 161.87 252.26 162.79 252.21 163.25 C 255.14 165.33 258.52 166.62 262.11 167.00 C 265.54 167.37 268.12 169.92 270.33 172.35 C 265.87 172.45 261.41 171.86 256.97 172.55 C 252.92 173.36 249.21 171.32 245.45 170.19 C 245.51 170.68 245.61 171.66 245.67 172.15 C 249.16 173.68 252.77 175.03 256.03 177.05 C 251.69 178.84 246.59 179.65 243.48 183.53 C 241.18 185.75 241.13 189.09 241.35 192.06 C 248.51 197.49 254.96 204.02 263.13 208.00 C 275.87 214.49 289.58 219.00 303.48 222.24 C 307.83 223.41 312.75 222.89 316.59 225.56 C 320.77 228.29 325.18 230.75 328.77 234.28 C 333.99 238.87 339.10 244.22 345.99 246.21 C 350.60 246.72 355.91 246.78 359.61 243.51 C 363.53 240.68 363.16 235.33 363.67 231.05 C 364.66 223.67 361.10 216.89 358.76 210.13 C 355.94 202.16 352.67 193.62 354.79 185.08 C 356.17 180.17 360.78 177.53 364.14 174.12 C 366.28 172.06 367.21 168.52 365.45 165.93 C 362.93 162.26 359.45 159.39 355.86 156.81 C 359.82 158.70 364.00 160.68 366.73 164.27 C 368.55 166.71 371.57 168.69 371.72 172.00 C 372.13 175.74 369.47 178.77 368.23 182.10 C 373.91 176.75 375.63 167.66 383.12 164.18 C 390.43 161.47 398.69 162.37 405.98 164.74 C 411.56 166.52 417.08 168.48 422.68 170.22 C 424.22 170.68 425.88 170.86 427.46 170.49 C 429.90 168.75 427.76 165.95 426.65 164.10 C 426.94 162.54 427.28 160.99 427.61 159.45 C 430.72 158.03 434.00 158.95 437.10 159.85 C 437.23 154.28 432.17 150.96 428.24 147.96 C 428.27 147.77 428.31 147.39 428.34 147.20 C 433.59 149.82 438.50 153.37 442.18 157.98 C 443.75 159.73 443.75 162.10 443.51 164.31 C 440.27 166.67 436.56 164.88 433.06 164.31 C 434.90 168.18 437.83 171.73 437.81 176.25 C 436.25 178.27 434.60 180.57 431.97 181.21 C 426.83 181.85 421.62 181.36 416.62 180.11 C 412.20 179.00 407.11 178.87 403.50 182.08 C 407.35 182.57 411.11 183.60 414.59 185.32 C 419.14 188.02 425.22 184.86 429.36 188.58 C 431.81 190.92 434.85 192.38 438.14 193.14 C 436.06 196.56 431.61 196.95 428.25 195.32 C 424.99 193.63 421.89 195.93 419.01 197.31 C 418.28 197.25 416.82 197.12 416.09 197.06 C 414.25 196.57 412.34 196.40 410.46 196.32 C 412.92 198.07 415.57 199.55 418.03 201.33 C 420.41 201.63 423.09 201.26 425.11 202.82 C 427.26 204.33 429.35 205.97 431.84 206.89 C 431.73 207.18 431.50 207.77 431.39 208.06 C 430.79 208.42 429.61 209.13 429.01 209.49 C 426.69 208.84 424.40 207.47 421.93 207.76 C 418.75 209.01 415.81 210.79 412.62 212.05 C 417.83 212.12 423.32 213.92 426.42 218.35 C 425.30 218.99 424.18 219.64 423.07 220.30 C 421.73 220.27 420.40 220.25 419.07 220.24 C 417.29 221.50 415.35 222.53 413.33 223.33 C 411.59 222.97 409.84 222.72 408.08 222.52 C 404.83 225.58 400.34 226.61 395.98 226.22 C 390.48 225.59 385.51 228.74 381.91 232.60 C 385.88 231.93 389.94 230.35 393.95 231.76 C 397.78 233.17 401.88 231.85 405.78 232.57 C 408.66 234.19 411.32 236.19 414.03 238.08 C 412.74 238.80 411.46 239.53 410.16 240.22 C 405.05 237.85 400.74 242.40 395.72 242.64 C 398.87 245.21 401.77 248.43 406.02 249.05 C 406.40 249.49 407.15 250.37 407.53 250.81 C 404.94 251.87 402.70 253.73 399.99 254.49 C 396.96 252.86 393.68 251.85 390.20 252.32 C 390.22 252.72 390.27 253.54 390.29 253.94 C 393.72 256.80 399.16 257.54 400.94 262.00 C 398.25 262.32 395.61 262.89 392.97 263.48 C 388.21 262.45 383.15 262.94 378.96 260.03 C 381.25 263.37 383.42 266.80 386.08 269.87 C 388.01 271.65 387.41 274.43 387.60 276.77 C 386.49 276.03 385.39 275.30 384.30 274.56 C 382.08 274.50 379.87 274.45 377.65 274.37 C 376.39 272.91 375.14 271.44 373.89 269.98 C 373.70 271.98 373.54 273.99 373.33 276.00 C 371.46 278.60 369.84 281.36 368.23 284.13 C 369.24 280.75 371.27 276.60 368.58 273.45 C 365.97 271.16 362.33 270.56 359.53 268.53 C 357.43 267.09 356.20 264.78 354.85 262.69 C 353.94 262.69 352.14 262.70 351.23 262.70 C 351.68 267.16 353.24 271.57 352.26 276.09 C 349.81 289.19 342.03 300.27 335.46 311.58 C 334.88 312.89 333.36 314.67 334.75 315.98 C 340.52 322.08 343.73 330.31 350.44 335.56 C 352.23 337.36 355.25 338.96 354.76 341.94 C 355.31 351.09 346.91 356.61 343.01 363.92 C 340.60 368.63 338.45 373.48 336.59 378.44 C 335.28 381.01 338.09 382.76 339.33 384.64 C 341.01 386.45 341.06 389.02 341.35 391.33 C 337.59 392.02 333.62 392.17 330.14 393.90 C 326.88 395.47 324.99 398.69 322.87 401.45 C 319.42 401.39 315.98 401.37 312.53 401.43 C 312.02 402.43 311.52 403.45 311.03 404.48 C 315.09 405.09 319.16 405.63 323.17 406.52 C 321.51 410.80 318.89 415.51 314.05 416.66 C 306.68 418.12 298.94 417.51 291.80 415.18 C 294.01 410.03 298.71 405.30 297.28 399.25 C 302.40 397.60 308.03 395.77 311.14 391.03 C 314.86 385.22 320.59 380.97 323.86 374.84 C 327.62 368.53 330.69 361.80 332.64 354.70 C 328.65 349.62 324.53 344.57 319.91 340.06 C 315.84 338.12 311.40 336.99 307.53 334.61 C 303.11 331.89 299.02 328.68 294.57 326.00 C 295.03 330.69 296.12 335.29 296.64 339.97 C 296.87 341.26 296.24 342.48 295.48 343.47 C 290.47 349.27 281.85 350.04 277.05 356.07 C 273.55 360.10 270.44 364.45 267.36 368.81 C 269.57 371.55 270.75 374.89 270.51 378.43 C 266.41 379.35 262.20 379.91 258.29 381.48 C 255.87 382.46 254.46 384.89 252.17 386.08 C 249.13 386.70 245.99 385.96 242.93 386.43 C 242.75 387.15 242.40 388.57 242.23 389.28 C 245.69 389.95 249.16 390.54 252.66 390.94 C 251.43 395.04 249.06 399.18 244.88 400.80 C 238.02 402.54 230.67 402.84 223.91 400.41 C 224.93 394.68 229.79 389.92 228.51 383.80 C 231.49 383.23 234.57 382.68 237.26 381.18 C 239.58 379.53 240.97 376.95 242.82 374.84 C 246.36 370.28 251.99 368.05 255.67 363.62 C 260.49 358.01 264.28 351.62 268.70 345.70 C 271.66 339.22 270.32 331.75 270.16 324.86 C 265.50 316.81 256.88 311.83 252.26 303.70 C 249.63 298.90 247.63 293.77 246.00 288.55 C 253.96 290.26 262.09 290.78 270.17 291.72 C 271.24 297.43 273.32 302.90 276.22 307.93 C 276.67 309.05 277.76 309.57 278.77 310.10 C 278.55 307.32 277.68 304.66 276.77 302.05 C 276.34 296.95 275.61 291.89 275.26 286.79 C 274.70 286.54 273.59 286.04 273.03 285.80 C 258.17 284.16 243.20 282.47 228.80 278.29 C 222.48 275.68 215.65 274.63 209.40 271.84 C 196.88 266.22 185.00 259.31 173.48 251.86 C 174.06 245.04 175.09 238.22 174.35 231.36 C 173.95 231.35 173.15 231.32 172.75 231.31 C 172.74 238.53 171.18 246.02 166.11 251.45 C 155.27 251.30 145.68 245.15 136.88 239.40 C 129.98 235.14 122.88 229.74 114.33 230.21 C 114.39 236.70 114.35 243.23 115.53 249.63 C 119.94 248.97 124.39 249.27 128.79 249.88 C 128.63 254.78 125.96 260.36 129.66 264.62 C 130.50 264.67 132.18 264.75 133.02 264.80 C 131.73 268.76 129.73 272.49 129.09 276.66 C 129.77 276.65 131.13 276.64 131.81 276.63 C 133.40 272.95 135.31 269.42 137.07 265.82 C 139.73 267.83 142.11 270.56 142.41 274.02 C 142.94 279.81 140.61 285.39 138.30 290.58 C 137.29 292.18 136.44 294.86 134.07 294.46 C 131.58 291.71 129.04 289.01 126.35 286.47 C 125.87 286.44 124.91 286.38 124.43 286.35 C 123.73 287.18 123.04 288.01 122.34 288.84 C 122.61 284.24 122.45 279.36 120.17 275.24 C 116.97 272.00 112.60 270.41 108.64 268.33 C 107.62 266.91 106.57 265.52 105.50 264.14 C 103.13 251.52 105.01 238.20 100.09 226.08 C 98.13 221.98 100.95 218.01 102.59 214.37 C 103.62 212.34 105.44 209.96 108.01 210.43 C 113.42 211.05 117.75 214.87 123.03 215.95 C 128.19 217.16 133.37 218.86 138.74 218.37 C 138.56 213.84 137.20 209.47 136.66 204.99 C 136.26 201.79 137.05 198.55 136.38 195.38 C 132.52 200.77 133.50 207.47 133.78 213.67 C 129.89 212.10 125.67 211.25 122.07 209.03 C 119.58 207.20 119.44 203.80 118.70 201.05 C 116.92 191.24 110.68 183.09 104.06 175.96 C 101.23 177.38 99.22 179.86 96.99 182.03 C 93.36 185.66 89.01 188.61 86.11 192.93 C 89.90 195.05 92.06 198.86 92.83 203.03 C 88.80 205.38 84.88 208.65 84.33 213.61 C 81.61 214.98 76.59 214.34 76.36 218.22 C 79.88 218.36 83.41 218.44 86.94 218.52 C 86.52 222.21 86.72 226.80 83.21 229.12 C 77.35 232.68 70.22 233.84 63.45 233.25 C 63.21 229.09 64.70 225.03 64.40 220.89 C 63.05 218.57 60.01 219.40 57.75 218.97 C 60.59 217.96 64.05 217.49 65.92 214.85 C 67.95 212.06 70.11 208.69 69.29 205.08 C 68.87 202.73 68.28 200.41 67.76 198.09 C 68.82 194.67 69.22 190.57 72.41 188.35 C 79.58 182.90 85.16 175.79 91.28 169.26 C 94.04 166.13 95.08 161.88 97.76 158.70 C 101.37 156.09 106.22 156.86 110.30 155.45 C 113.97 157.93 115.08 162.29 116.83 166.08 C 120.77 171.72 125.05 177.38 130.84 181.24 C 133.51 183.11 136.08 185.13 138.80 186.93 C 140.89 179.46 146.91 174.30 151.93 168.78 C 157.78 160.02 162.52 150.48 169.42 142.44 C 173.05 137.81 177.27 133.66 181.61 129.70 C 184.43 128.11 187.91 128.26 190.81 126.74 C 196.57 124.48 201.21 119.85 203.81 114.27 C 200.68 114.97 199.29 118.23 196.79 119.93 C 191.94 123.69 185.01 126.30 179.10 123.50 C 177.17 122.43 175.63 120.79 173.97 119.36 C 169.29 120.12 164.29 120.47 160.29 123.29 C 156.28 125.51 152.89 129.63 147.94 129.45 C 143.56 129.57 140.47 125.86 137.32 123.33 C 141.93 121.32 146.42 119.07 150.99 116.98 C 150.87 116.44 150.63 115.37 150.51 114.84 C 144.40 114.17 138.18 114.82 132.17 113.34 C 132.57 109.86 131.99 106.40 131.86 102.93 C 132.77 99.12 135.35 95.44 139.22 94.22 C 142.70 93.12 146.44 92.61 149.54 90.54 C 155.79 86.66 162.25 83.14 168.90 79.99 C 175.64 76.88 182.14 73.20 189.20 70.84 C 190.06 67.75 190.52 63.61 194.10 62.49 C 198.19 61.79 202.34 62.75 206.29 63.80 C 203.61 65.31 200.71 66.45 198.14 68.14 C 196.43 69.82 196.45 72.43 196.08 74.64 C 196.55 74.57 197.47 74.43 197.94 74.36 C 199.70 68.87 205.95 67.46 209.33 63.30 M 169.66 85.93 C 172.40 86.52 174.35 88.50 176.07 90.57 C 177.83 90.58 179.60 90.53 181.37 90.44 C 181.50 88.60 181.60 86.76 181.64 84.91 C 180.70 84.31 179.76 83.70 178.82 83.09 C 175.72 83.90 172.66 84.82 169.66 85.93 M 140.03 98.80 C 139.87 99.07 139.55 99.61 139.39 99.88 C 143.16 100.22 142.89 104.14 141.26 106.57 C 143.22 106.11 145.81 105.86 146.40 103.53 C 147.08 101.30 144.95 99.93 143.63 98.54 C 142.43 98.62 141.23 98.71 140.03 98.80 Z" />
</g>
<g id="#ffcc00ff">
<path fill="#ffcc00" opacity="1.00" d=" M 12.57 12.51 C 171.22 12.45 329.86 12.47 488.51 12.50 C 484.73 54.00 481.69 95.56 477.75 137.05 C 474.71 174.70 471.07 212.31 467.96 249.96 C 464.30 295.08 455.54 340.30 437.02 381.82 C 422.54 414.63 401.58 444.92 374.09 468.17 C 344.37 493.42 306.99 509.87 268.05 513.38 C 247.99 514.45 227.64 514.18 208.01 509.43 C 180.11 503.13 153.75 490.40 131.26 472.76 C 107.20 453.98 87.69 429.76 72.96 403.12 C 46.64 355.40 35.16 300.95 31.41 246.99 C 26.55 187.67 21.66 128.34 16.90 69.01 C 15.54 50.17 14.19 31.33 12.57 12.51 M 209.33 63.30 C 205.95 67.46 199.70 68.87 197.94 74.36 C 197.47 74.43 196.55 74.57 196.08 74.64 C 196.45 72.43 196.43 69.82 198.14 68.14 C 200.71 66.45 203.61 65.31 206.29 63.80 C 202.34 62.75 198.19 61.79 194.10 62.49 C 190.52 63.61 190.06 67.75 189.20 70.84 C 182.14 73.20 175.64 76.88 168.90 79.99 C 162.25 83.14 155.79 86.66 149.54 90.54 C 146.44 92.61 142.70 93.12 139.22 94.22 C 135.35 95.44 132.77 99.12 131.86 102.93 C 131.99 106.40 132.57 109.86 132.17 113.34 C 138.18 114.82 144.40 114.17 150.51 114.84 C 150.63 115.37 150.87 116.44 150.99 116.98 C 146.42 119.07 141.93 121.32 137.32 123.33 C 140.47 125.86 143.56 129.57 147.94 129.45 C 152.89 129.63 156.28 125.51 160.29 123.29 C 164.29 120.47 169.29 120.12 173.97 119.36 C 175.63 120.79 177.17 122.43 179.10 123.50 C 185.01 126.30 191.94 123.69 196.79 119.93 C 199.29 118.23 200.68 114.97 203.81 114.27 C 201.21 119.85 196.57 124.48 190.81 126.74 C 187.91 128.26 184.43 128.11 181.61 129.70 C 177.27 133.66 173.05 137.81 169.42 142.44 C 162.52 150.48 157.78 160.02 151.93 168.78 C 146.91 174.30 140.89 179.46 138.80 186.93 C 136.08 185.13 133.51 183.11 130.84 181.24 C 125.05 177.38 120.77 171.72 116.83 166.08 C 115.08 162.29 113.97 157.93 110.30 155.45 C 106.22 156.86 101.37 156.09 97.76 158.70 C 95.08 161.88 94.04 166.13 91.28 169.26 C 85.16 175.79 79.58 182.90 72.41 188.35 C 69.22 190.57 68.82 194.67 67.76 198.09 C 68.28 200.41 68.87 202.73 69.29 205.08 C 70.11 208.69 67.95 212.06 65.92 214.85 C 64.05 217.49 60.59 217.96 57.75 218.97 C 60.01 219.40 63.05 218.57 64.40 220.89 C 64.70 225.03 63.21 229.09 63.45 233.25 C 70.22 233.84 77.35 232.68 83.21 229.12 C 86.72 226.80 86.52 222.21 86.94 218.52 C 83.41 218.44 79.88 218.36 76.36 218.22 C 76.59 214.34 81.61 214.98 84.33 213.61 C 84.88 208.65 88.80 205.38 92.83 203.03 C 92.06 198.86 89.90 195.05 86.11 192.93 C 89.01 188.61 93.36 185.66 96.99 182.03 C 99.22 179.86 101.23 177.38 104.06 175.96 C 110.68 183.09 116.92 191.24 118.70 201.05 C 119.44 203.80 119.58 207.20 122.07 209.03 C 125.67 211.25 129.89 212.10 133.78 213.67 C 133.50 207.47 132.52 200.77 136.38 195.38 C 137.05 198.55 136.26 201.79 136.66 204.99 C 137.20 209.47 138.56 213.84 138.74 218.37 C 133.37 218.86 128.19 217.16 123.03 215.95 C 117.75 214.87 113.42 211.05 108.01 210.43 C 105.44 209.96 103.62 212.34 102.59 214.37 C 100.95 218.01 98.13 221.98 100.09 226.08 C 105.01 238.20 103.13 251.52 105.50 264.14 C 106.57 265.52 107.62 266.91 108.64 268.33 C 112.60 270.41 116.97 272.00 120.17 275.24 C 122.45 279.36 122.61 284.24 122.34 288.84 C 123.04 288.01 123.73 287.18 124.43 286.35 C 124.91 286.38 125.87 286.44 126.35 286.47 C 129.04 289.01 131.58 291.71 134.07 294.46 C 136.44 294.86 137.29 292.18 138.30 290.58 C 140.61 285.39 142.94 279.81 142.41 274.02 C 142.11 270.56 139.73 267.83 137.07 265.82 C 135.31 269.42 133.40 272.95 131.81 276.63 C 131.13 276.64 129.77 276.65 129.09 276.66 C 129.73 272.49 131.73 268.76 133.02 264.80 C 132.18 264.75 130.50 264.67 129.66 264.62 C 125.96 260.36 128.63 254.78 128.79 249.88 C 124.39 249.27 119.94 248.97 115.53 249.63 C 114.35 243.23 114.39 236.70 114.33 230.21 C 122.88 229.74 129.98 235.14 136.88 239.40 C 145.68 245.15 155.27 251.30 166.11 251.45 C 171.18 246.02 172.74 238.53 172.75 231.31 C 173.15 231.32 173.95 231.35 174.35 231.36 C 175.09 238.22 174.06 245.04 173.48 251.86 C 185.00 259.31 196.88 266.22 209.40 271.84 C 215.65 274.63 222.48 275.68 228.80 278.29 C 243.20 282.47 258.17 284.16 273.03 285.80 C 273.59 286.04 274.70 286.54 275.26 286.79 C 275.61 291.89 276.34 296.95 276.77 302.05 C 277.68 304.66 278.55 307.32 278.77 310.10 C 277.76 309.57 276.67 309.05 276.22 307.93 C 273.32 302.90 271.24 297.43 270.17 291.72 C 262.09 290.78 253.96 290.26 246.00 288.55 C 247.63 293.77 249.63 298.90 252.26 303.70 C 256.88 311.83 265.50 316.81 270.16 324.86 C 270.32 331.75 271.66 339.22 268.70 345.70 C 264.28 351.62 260.49 358.01 255.67 363.62 C 251.99 368.05 246.36 370.28 242.82 374.84 C 240.97 376.95 239.58 379.53 237.26 381.18 C 234.57 382.68 231.49 383.23 228.51 383.80 C 229.79 389.92 224.93 394.68 223.91 400.41 C 230.67 402.84 238.02 402.54 244.88 400.80 C 249.06 399.18 251.43 395.04 252.66 390.94 C 249.16 390.54 245.69 389.95 242.23 389.28 C 242.40 388.57 242.75 387.15 242.93 386.43 C 245.99 385.96 249.13 386.70 252.17 386.08 C 254.46 384.89 255.87 382.46 258.29 381.48 C 262.20 379.91 266.41 379.35 270.51 378.43 C 270.75 374.89 269.57 371.55 267.36 368.81 C 270.44 364.45 273.55 360.10 277.05 356.07 C 281.85 350.04 290.47 349.27 295.48 343.47 C 296.24 342.48 296.87 341.26 296.64 339.97 C 296.12 335.29 295.03 330.69 294.57 326.00 C 299.02 328.68 303.11 331.89 307.53 334.61 C 311.40 336.99 315.84 338.12 319.91 340.06 C 324.53 344.57 328.65 349.62 332.64 354.70 C 330.69 361.80 327.62 368.53 323.86 374.84 C 320.59 380.97 314.86 385.22 311.14 391.03 C 308.03 395.77 302.40 397.60 297.28 399.25 C 298.71 405.30 294.01 410.03 291.80 415.18 C 298.94 417.51 306.68 418.12 314.05 416.66 C 318.89 415.51 321.51 410.80 323.17 406.52 C 319.16 405.63 315.09 405.09 311.03 404.48 C 311.52 403.45 312.02 402.43 312.53 401.43 C 315.98 401.37 319.42 401.39 322.87 401.45 C 324.99 398.69 326.88 395.47 330.14 393.90 C 333.62 392.17 337.59 392.02 341.35 391.33 C 341.06 389.02 341.01 386.45 339.33 384.64 C 338.09 382.76 335.28 381.01 336.59 378.44 C 338.45 373.48 340.60 368.63 343.01 363.92 C 346.91 356.61 355.31 351.09 354.76 341.94 C 355.25 338.96 352.23 337.36 350.44 335.56 C 343.73 330.31 340.52 322.08 334.75 315.98 C 333.36 314.67 334.88 312.89 335.46 311.58 C 342.03 300.27 349.81 289.19 352.26 276.09 C 353.24 271.57 351.68 267.16 351.23 262.70 C 352.14 262.70 353.94 262.69 354.85 262.69 C 356.20 264.78 357.43 267.09 359.53 268.53 C 362.33 270.56 365.97 271.16 368.58 273.45 C 371.27 276.60 369.24 280.75 368.23 284.13 C 369.84 281.36 371.46 278.60 373.33 276.00 C 373.54 273.99 373.70 271.98 373.89 269.98 C 375.14 271.44 376.39 272.91 377.65 274.37 C 379.87 274.45 382.08 274.50 384.30 274.56 C 385.39 275.30 386.49 276.03 387.60 276.77 C 387.41 274.43 388.01 271.65 386.08 269.87 C 383.42 266.80 381.25 263.37 378.96 260.03 C 383.15 262.94 388.21 262.45 392.97 263.48 C 395.61 262.89 398.25 262.32 400.94 262.00 C 399.16 257.54 393.72 256.80 390.29 253.94 C 390.27 253.54 390.22 252.72 390.20 252.32 C 393.68 251.85 396.96 252.86 399.99 254.49 C 402.70 253.73 404.94 251.87 407.53 250.81 C 407.15 250.37 406.40 249.49 406.02 249.05 C 401.77 248.43 398.87 245.21 395.72 242.64 C 400.74 242.40 405.05 237.85 410.16 240.22 C 411.46 239.53 412.74 238.80 414.03 238.08 C 411.32 236.19 408.66 234.19 405.78 232.57 C 401.88 231.85 397.78 233.17 393.95 231.76 C 389.94 230.35 385.88 231.93 381.91 232.60 C 385.51 228.74 390.48 225.59 395.98 226.22 C 400.34 226.61 404.83 225.58 408.08 222.52 C 409.84 222.72 411.59 222.97 413.33 223.33 C 415.35 222.53 417.29 221.50 419.07 220.24 C 420.40 220.25 421.73 220.27 423.07 220.30 C 424.18 219.64 425.30 218.99 426.42 218.35 C 423.32 213.92 417.83 212.12 412.62 212.05 C 415.81 210.79 418.75 209.01 421.93 207.76 C 424.40 207.47 426.69 208.84 429.01 209.49 C 429.61 209.13 430.79 208.42 431.39 208.06 C 431.50 207.77 431.73 207.18 431.84 206.89 C 429.35 205.97 427.26 204.33 425.11 202.82 C 423.09 201.26 420.41 201.63 418.03 201.33 C 415.57 199.55 412.92 198.07 410.46 196.32 C 412.34 196.40 414.25 196.57 416.09 197.06 C 416.82 197.12 418.28 197.25 419.01 197.31 C 421.89 195.93 424.99 193.63 428.25 195.32 C 431.61 196.95 436.06 196.56 438.14 193.14 C 434.85 192.38 431.81 190.92 429.36 188.58 C 425.22 184.86 419.14 188.02 414.59 185.32 C 411.11 183.60 407.35 182.57 403.50 182.08 C 407.11 178.87 412.20 179.00 416.62 180.11 C 421.62 181.36 426.83 181.85 431.97 181.21 C 434.60 180.57 436.25 178.27 437.81 176.25 C 437.83 171.73 434.90 168.18 433.06 164.31 C 436.56 164.88 440.27 166.67 443.51 164.31 C 443.75 162.10 443.75 159.73 442.18 157.98 C 438.50 153.37 433.59 149.82 428.34 147.20 C 428.31 147.39 428.27 147.77 428.24 147.96 C 432.17 150.96 437.23 154.28 437.10 159.85 C 434.00 158.95 430.72 158.03 427.61 159.45 C 427.28 160.99 426.94 162.54 426.65 164.10 C 427.76 165.95 429.90 168.75 427.46 170.49 C 425.88 170.86 424.22 170.68 422.68 170.22 C 417.08 168.48 411.56 166.52 405.98 164.74 C 398.69 162.37 390.43 161.47 383.12 164.18 C 375.63 167.66 373.91 176.75 368.23 182.10 C 369.47 178.77 372.13 175.74 371.72 172.00 C 371.57 168.69 368.55 166.71 366.73 164.27 C 364.00 160.68 359.82 158.70 355.86 156.81 C 359.45 159.39 362.93 162.26 365.45 165.93 C 367.21 168.52 366.28 172.06 364.14 174.12 C 360.78 177.53 356.17 180.17 354.79 185.08 C 352.67 193.62 355.94 202.16 358.76 210.13 C 361.10 216.89 364.66 223.67 363.67 231.05 C 363.16 235.33 363.53 240.68 359.61 243.51 C 355.91 246.78 350.60 246.72 345.99 246.21 C 339.10 244.22 333.99 238.87 328.77 234.28 C 325.18 230.75 320.77 228.29 316.59 225.56 C 312.75 222.89 307.83 223.41 303.48 222.24 C 289.58 219.00 275.87 214.49 263.13 208.00 C 254.96 204.02 248.51 197.49 241.35 192.06 C 241.13 189.09 241.18 185.75 243.48 183.53 C 246.59 179.65 251.69 178.84 256.03 177.05 C 252.77 175.03 249.16 173.68 245.67 172.15 C 245.61 171.66 245.51 170.68 245.45 170.19 C 249.21 171.32 252.92 173.36 256.97 172.55 C 261.41 171.86 265.87 172.45 270.33 172.35 C 268.12 169.92 265.54 167.37 262.11 167.00 C 258.52 166.62 255.14 165.33 252.21 163.25 C 252.26 162.79 252.36 161.87 252.40 161.40 C 254.59 162.09 256.80 162.72 259.02 163.35 C 265.61 161.04 272.60 162.01 279.40 161.25 C 274.79 157.54 268.84 155.81 263.08 154.79 C 261.94 154.71 260.81 154.63 259.68 154.56 C 258.44 153.39 257.23 152.20 256.03 150.99 C 258.41 150.78 260.84 150.70 263.10 149.87 C 265.18 149.59 267.27 149.38 269.35 149.07 C 265.80 146.27 260.54 146.89 257.49 143.36 C 260.67 143.02 263.86 143.43 267.04 143.56 C 270.29 143.67 272.97 141.52 276.03 140.78 C 280.45 141.06 285.73 143.55 289.37 139.87 C 286.54 138.76 283.82 137.41 280.96 136.38 C 276.45 134.74 271.50 135.89 266.97 134.36 C 264.45 133.72 262.20 132.39 260.09 130.93 C 263.07 130.77 266.06 130.94 269.05 130.82 C 273.49 130.66 277.44 127.90 281.94 128.24 C 286.11 128.37 290.52 128.47 294.12 126.03 C 290.59 124.85 287.32 122.99 283.77 121.89 C 279.52 121.60 275.23 122.81 270.98 122.05 C 268.07 121.35 265.57 119.62 263.03 118.12 C 263.93 117.12 264.82 116.12 265.72 115.12 C 264.94 114.81 263.40 114.19 262.62 113.89 C 266.92 112.88 271.23 111.82 275.09 109.59 C 279.60 108.98 284.26 109.04 288.55 107.23 C 288.65 106.45 288.75 105.68 288.86 104.91 C 284.71 105.00 281.11 102.82 277.17 101.94 C 273.43 101.05 269.76 102.81 266.01 102.62 C 263.02 102.72 260.20 101.61 257.34 100.91 C 257.72 100.39 258.47 99.36 258.85 98.84 C 261.78 97.62 265.18 97.17 267.58 94.94 C 264.49 93.90 261.34 92.81 258.05 92.71 C 255.22 92.47 251.98 93.17 249.72 91.02 C 252.18 90.67 254.66 90.55 257.12 90.19 C 261.21 89.27 264.53 85.81 268.93 86.19 C 271.90 85.93 275.93 86.36 277.25 82.99 C 271.60 82.89 266.56 80.02 261.04 79.30 C 253.02 77.59 244.79 79.32 236.72 78.36 C 241.46 75.17 247.92 75.35 251.84 70.83 C 248.77 70.59 245.68 70.29 242.77 69.22 C 237.89 67.23 232.54 68.61 227.46 68.12 C 229.99 66.47 232.73 65.18 235.37 63.71 C 229.68 63.66 224.03 63.13 218.41 62.27 C 217.26 67.00 216.35 71.77 215.52 76.56 C 226.59 83.51 234.11 94.91 239.12 106.75 C 242.63 114.68 242.90 123.49 242.63 132.02 C 242.23 148.62 237.53 164.67 233.11 180.55 C 232.78 180.61 232.11 180.72 231.77 180.78 C 230.53 178.44 228.55 175.96 229.69 173.15 C 233.43 159.63 237.79 146.08 238.42 131.95 C 238.71 117.33 234.83 102.12 225.16 90.85 C 220.74 84.54 214.31 80.16 207.85 76.18 C 210.25 75.70 211.73 73.86 212.26 71.56 C 213.83 65.13 214.44 58.51 215.27 51.95 C 213.28 55.72 212.03 59.94 209.33 63.30 Z" />
<path fill="#ffcc00" opacity="1.00" d=" M 169.66 85.93 C 172.66 84.82 175.72 83.90 178.82 83.09 C 179.76 83.70 180.70 84.31 181.64 84.91 C 181.60 86.76 181.50 88.60 181.37 90.44 C 179.60 90.53 177.83 90.58 176.07 90.57 C 174.35 88.50 172.40 86.52 169.66 85.93 Z" />
<path fill="#ffcc00" opacity="1.00" d=" M 140.03 98.80 C 141.23 98.71 142.43 98.62 143.63 98.54 C 144.95 99.93 147.08 101.30 146.40 103.53 C 145.81 105.86 143.22 106.11 141.26 106.57 C 142.89 104.14 143.16 100.22 139.39 99.88 C 139.55 99.61 139.87 99.07 140.03 98.80 Z" />
</g>
</svg>
