<?xml version="1.0" encoding="UTF-8" ?>
<!DOCTYPE svg PUBLIC "-//W3C//DTD SVG 1.1//EN" "http://www.w3.org/Graphics/SVG/1.1/DTD/svg11.dtd">
<svg width="583pt" height="600pt" viewBox="0 0 583 600" version="1.1" xmlns="http://www.w3.org/2000/svg">
<g id="#131516ff">
<path fill="#131516" opacity="1.00" d=" M 0.00 0.00 L 583.00 0.00 L 583.00 6.35 C 578.11 123.22 573.76 240.12 569.08 356.99 C 569.05 368.08 567.18 379.03 565.50 389.96 C 561.03 410.49 554.32 430.52 545.74 449.69 C 542.28 456.49 538.51 463.14 534.77 469.79 C 521.51 490.61 505.27 509.43 487.43 526.45 C 479.19 534.67 469.42 541.09 460.30 548.25 C 439.29 561.88 416.96 573.57 393.65 582.73 C 377.03 588.26 360.02 592.64 342.83 595.98 C 329.26 598.89 315.32 599.17 301.52 600.00 L 272.53 600.00 C 261.93 598.62 251.18 598.39 240.71 596.11 C 204.23 589.10 168.24 577.24 136.77 557.17 C 122.72 548.19 109.35 538.17 96.66 527.36 C 89.76 521.65 83.78 514.96 77.64 508.46 C 65.59 495.78 55.79 481.16 46.52 466.38 C 39.37 455.01 33.90 442.69 28.88 430.27 C 24.52 417.21 20.53 404.00 17.63 390.54 C 15.92 379.41 14.04 368.26 13.70 356.98 C 9.13 238.85 4.23 120.73 0.00 2.59 L 0.00 0.00 M 13.43 13.15 C 17.91 129.79 22.69 246.41 27.35 363.04 C 27.85 369.84 28.76 376.62 29.72 383.37 C 32.14 395.26 35.37 406.97 38.72 418.63 C 48.25 442.76 59.99 466.33 76.26 486.69 C 93.64 507.35 113.60 525.91 136.00 541.03 C 151.64 551.98 169.03 560.16 186.78 567.05 C 207.48 575.04 229.05 580.66 250.90 584.43 C 265.87 586.16 280.94 587.79 296.02 586.92 C 313.20 587.10 330.23 584.34 347.13 581.56 C 365.07 578.69 382.30 572.70 399.16 566.08 C 407.98 562.46 416.94 559.03 425.18 554.16 C 455.81 537.24 483.50 514.81 505.76 487.78 C 519.80 468.68 533.00 448.55 541.15 426.16 C 549.12 405.30 554.05 383.29 555.84 361.04 C 560.32 245.08 564.95 129.13 569.48 13.17 C 384.13 13.21 198.78 13.24 13.43 13.15 Z" />
<path fill="#131516" opacity="1.00" d=" M 262.60 31.33 C 263.77 28.69 264.68 25.82 266.86 23.81 C 270.09 28.06 273.10 32.49 276.31 36.76 C 285.56 36.87 294.74 38.29 303.99 38.31 C 304.19 39.01 304.58 40.42 304.78 41.12 C 301.53 43.27 298.05 45.01 294.67 46.93 C 298.81 46.39 302.86 44.90 307.09 45.27 C 313.23 45.60 319.42 45.90 325.41 47.38 C 326.87 47.92 329.08 47.97 329.18 49.98 C 323.70 54.04 318.94 58.92 313.88 63.46 C 317.06 65.72 321.17 65.92 324.92 65.45 C 331.27 63.64 337.22 59.61 344.08 60.20 C 348.30 60.41 351.95 62.70 355.85 64.05 C 359.42 64.33 363.01 63.91 366.59 63.88 C 365.71 66.86 363.94 69.66 360.99 70.92 C 354.84 74.16 347.42 72.95 341.29 76.19 C 337.88 77.86 334.85 80.16 331.77 82.34 C 337.50 81.91 343.67 80.34 349.12 82.98 C 351.92 84.43 354.82 85.66 357.82 86.65 C 354.79 91.36 349.48 93.55 344.97 96.50 C 351.50 98.00 357.94 95.80 364.12 93.92 C 372.10 92.71 380.98 95.29 385.87 102.05 C 384.60 103.63 383.01 104.92 380.92 105.08 C 377.14 105.41 374.70 108.56 371.59 110.29 C 362.47 113.33 352.62 112.49 343.36 114.89 C 347.49 117.55 352.62 117.42 357.17 118.93 C 357.18 119.40 357.19 120.35 357.20 120.82 C 354.18 123.06 350.27 123.52 347.18 125.64 C 354.10 125.26 361.56 123.59 368.00 127.10 C 375.31 131.14 383.17 134.51 391.62 135.01 C 391.23 137.38 390.00 139.65 387.61 140.47 C 380.73 143.22 373.18 141.67 366.02 141.45 C 361.60 141.59 357.66 143.90 353.86 145.93 C 362.48 151.40 373.03 150.72 382.80 150.97 C 382.89 151.67 383.06 153.07 383.15 153.78 C 378.41 156.41 374.58 160.84 369.07 161.87 C 361.94 163.80 354.50 163.58 347.20 164.14 C 350.18 167.02 354.18 168.34 357.81 170.15 C 357.91 170.87 358.11 172.30 358.21 173.02 C 354.16 174.26 350.18 175.75 346.42 177.71 C 353.16 180.24 360.87 177.46 367.50 180.28 C 370.93 183.60 375.73 184.22 380.04 185.80 C 376.97 191.02 370.26 191.93 364.89 193.29 C 356.61 193.59 348.36 192.28 340.08 192.29 C 340.49 193.02 341.32 194.47 341.74 195.20 C 349.02 197.42 358.78 198.06 362.33 205.97 C 352.62 213.10 339.99 210.69 328.83 209.95 C 331.21 212.96 336.20 213.78 336.98 217.94 C 337.66 220.00 335.36 221.09 333.82 221.68 C 329.95 222.80 325.88 221.80 321.95 221.62 C 323.07 223.71 324.06 225.86 324.66 228.16 C 322.18 228.64 319.68 229.03 317.18 229.36 C 318.92 230.80 320.93 232.08 322.15 234.05 C 323.31 235.69 322.01 237.64 320.63 238.62 C 316.71 238.81 312.84 238.01 309.01 237.33 C 312.78 240.81 316.21 244.72 320.57 247.50 C 343.82 263.33 370.55 272.85 396.90 282.08 C 408.35 283.41 420.53 282.59 431.16 287.84 C 435.99 290.87 440.16 294.84 444.98 297.90 C 452.64 302.54 457.73 310.11 463.79 316.48 C 469.13 315.35 473.59 312.05 477.77 308.72 C 480.67 306.45 482.72 302.75 482.04 298.99 C 481.26 294.28 478.05 290.51 475.11 286.93 C 472.58 283.64 468.66 282.00 465.29 279.77 C 457.62 274.84 449.90 269.91 442.84 264.14 C 437.54 257.29 435.33 248.59 430.60 241.38 C 428.42 238.87 425.36 237.07 424.01 233.91 C 420.87 227.43 422.64 219.97 424.57 213.41 C 426.21 207.32 429.17 201.40 428.84 194.96 C 428.75 191.25 428.58 187.54 428.71 183.83 C 435.70 185.09 438.82 192.46 443.47 197.04 C 451.75 183.03 465.81 172.35 481.93 169.42 C 493.06 168.62 504.41 167.51 514.77 163.06 C 514.79 161.78 514.82 160.50 514.84 159.22 C 510.91 155.25 503.71 151.80 505.46 145.08 C 507.10 138.32 515.34 137.80 520.95 136.59 C 521.30 135.26 522.31 133.79 521.42 132.46 C 519.77 130.16 516.67 129.88 514.18 129.04 C 514.52 128.13 514.49 126.70 515.77 126.57 C 520.12 125.04 525.12 124.72 529.37 126.76 C 533.19 128.46 536.01 131.66 538.59 134.84 C 538.29 138.18 538.44 142.20 535.55 144.50 C 532.24 146.91 527.97 147.52 524.76 150.13 C 525.43 154.87 530.51 156.42 532.92 160.04 C 535.74 163.86 536.27 169.56 533.79 173.63 C 524.04 182.32 510.59 184.34 499.38 190.45 C 497.90 191.15 496.52 192.06 495.52 193.38 C 501.04 193.23 506.51 192.41 512.02 191.98 C 513.84 191.68 516.01 191.96 517.42 190.50 C 522.83 185.81 528.21 180.94 534.59 177.58 C 537.48 176.07 541.14 174.72 544.14 176.79 C 542.48 179.47 540.15 181.61 538.21 184.05 C 537.11 188.54 538.13 193.55 535.92 197.75 C 532.06 201.65 527.37 204.60 522.91 207.75 C 529.92 207.20 535.90 202.75 542.90 202.18 C 543.34 202.88 543.73 203.61 544.08 204.38 C 539.94 207.25 537.15 211.44 534.76 215.77 C 530.77 220.56 524.08 223.89 523.46 230.80 C 528.42 228.82 533.60 227.28 538.97 227.02 C 542.82 227.18 545.85 224.53 549.48 223.72 C 548.87 229.07 548.30 235.17 544.00 238.98 C 538.39 243.82 530.53 245.01 525.17 250.24 C 519.94 254.01 519.31 260.80 518.23 266.63 C 522.84 263.30 524.58 257.41 529.34 254.28 C 532.69 251.90 536.56 248.44 540.98 250.13 C 540.24 253.79 538.47 257.16 537.92 260.86 C 537.03 266.08 537.01 271.45 535.45 276.55 C 534.46 281.20 528.33 281.73 527.06 286.33 C 533.65 288.22 538.39 282.31 544.47 281.28 C 547.02 286.00 544.42 291.49 541.07 295.04 C 536.21 298.56 529.77 299.43 525.45 303.80 C 528.49 303.75 531.56 303.83 534.58 303.36 C 537.30 302.65 539.96 301.61 542.83 301.62 C 543.28 304.77 543.50 308.48 540.88 310.81 C 535.34 315.96 527.31 316.75 521.21 321.06 C 524.23 326.07 530.70 326.98 536.02 326.75 C 538.82 325.65 541.55 323.86 544.71 324.72 C 542.91 329.72 539.05 333.73 534.57 336.45 C 529.78 337.92 524.67 337.96 519.79 339.09 C 520.15 340.31 520.26 341.88 521.81 342.19 C 525.48 343.47 529.41 341.78 533.20 342.03 C 530.90 348.23 524.76 351.75 519.00 354.21 C 512.20 354.64 505.19 352.49 499.95 348.09 C 496.17 345.15 493.15 341.40 489.58 338.25 C 486.53 336.62 482.89 337.68 479.75 338.53 C 479.88 344.71 479.80 350.89 479.84 357.08 C 480.01 360.37 478.55 363.40 477.45 366.41 C 473.18 377.55 467.05 388.07 458.79 396.72 C 454.54 400.93 450.87 405.70 447.62 410.71 C 443.11 417.62 445.38 427.39 451.08 432.90 C 457.94 440.14 464.41 447.86 469.54 456.45 C 470.68 458.08 470.35 460.18 470.06 462.03 C 469.17 467.02 465.05 470.40 462.54 474.57 C 460.37 477.65 458.76 481.49 455.21 483.25 C 447.22 487.69 439.30 492.41 432.33 498.37 C 429.66 500.62 428.13 503.87 426.87 507.05 C 425.16 511.42 428.42 515.61 428.53 519.95 C 428.48 521.91 427.40 524.65 424.98 524.27 C 422.18 523.86 419.76 522.29 417.27 521.08 C 417.11 525.71 416.77 530.39 415.32 534.83 C 410.69 534.23 407.27 530.92 403.67 528.30 C 403.15 531.51 402.78 534.74 402.41 537.98 C 397.03 537.36 392.55 534.16 388.56 530.73 C 386.64 532.21 384.74 533.73 382.83 535.23 C 382.66 539.49 383.33 543.72 383.47 547.97 C 382.29 551.48 378.52 553.04 375.30 554.16 C 368.07 556.36 360.44 556.93 352.92 557.16 C 344.65 555.99 336.69 553.16 328.85 550.36 C 331.99 542.54 339.52 537.95 345.52 532.52 C 348.43 528.83 348.21 523.05 352.24 520.15 C 356.53 518.41 361.35 519.03 365.76 517.72 C 371.70 514.48 376.64 509.47 383.10 507.18 C 388.86 504.58 395.28 502.45 399.24 497.20 C 406.79 489.73 416.54 484.78 423.59 476.70 C 429.87 471.56 426.90 462.04 421.92 457.10 C 415.80 452.26 408.44 449.33 401.87 445.23 C 390.41 434.98 379.40 424.13 369.81 412.09 C 365.05 406.62 363.97 398.99 363.54 392.01 C 363.28 378.56 370.99 366.84 378.79 356.55 C 380.48 354.75 379.36 352.14 376.79 352.43 C 367.27 362.35 360.59 375.07 358.87 388.80 C 342.05 385.83 324.96 384.19 308.44 379.71 C 274.00 371.19 239.25 359.84 210.76 338.00 C 210.77 334.40 212.15 331.06 214.14 328.13 C 217.00 323.94 218.39 318.96 219.03 313.98 C 216.50 313.69 216.10 316.50 215.13 318.18 C 211.87 325.54 207.78 332.62 202.05 338.34 C 171.50 339.42 144.58 321.95 114.84 318.15 C 113.21 318.10 111.42 317.45 109.89 318.27 C 109.96 327.53 111.00 336.79 112.02 346.00 C 114.86 342.99 117.67 339.51 121.94 338.60 C 122.03 342.46 122.07 346.32 122.15 350.19 C 123.81 350.10 125.47 350.03 127.12 349.97 C 127.06 354.68 125.33 359.09 123.88 363.50 C 126.28 361.96 128.62 360.16 131.51 359.71 C 131.57 364.19 131.41 368.67 131.04 373.14 C 132.27 375.40 133.38 377.72 134.35 380.10 C 138.61 380.16 142.88 380.22 147.14 380.31 C 148.78 388.57 146.18 396.86 143.77 404.71 C 141.07 412.36 138.70 420.38 133.51 426.79 C 132.53 426.77 131.55 426.75 130.57 426.74 C 127.15 420.54 123.78 414.12 118.63 409.16 C 115.47 407.17 110.34 408.61 108.14 404.97 C 107.18 400.99 108.68 396.92 108.50 392.90 C 106.30 384.72 99.98 378.30 92.77 374.21 C 88.84 372.01 85.26 368.50 84.48 363.89 C 82.77 353.98 89.61 344.84 87.85 334.94 C 87.13 327.44 84.86 320.23 83.18 312.92 C 83.12 304.27 88.12 296.68 92.89 289.85 C 97.46 285.63 104.29 285.95 110.02 286.95 C 120.25 289.06 130.56 291.10 141.03 291.51 C 144.29 291.70 147.56 291.15 150.56 289.84 C 150.05 289.44 149.04 288.65 148.53 288.26 C 147.28 278.88 145.66 269.50 145.60 260.01 C 145.62 255.74 149.09 252.67 150.57 248.89 C 151.11 247.62 151.18 245.89 150.03 244.93 C 147.58 244.83 146.39 247.46 144.90 248.99 C 140.61 253.95 141.05 260.87 141.25 266.98 C 141.92 274.01 143.01 281.00 143.80 288.02 C 138.80 288.10 133.73 288.32 128.82 287.18 C 125.01 270.91 120.17 254.91 115.01 239.02 C 113.71 235.33 111.97 231.64 109.29 228.75 C 104.16 226.96 98.52 225.19 93.08 226.43 C 87.30 228.45 85.44 234.91 82.39 239.57 C 79.59 241.75 75.60 242.99 74.72 246.89 C 78.16 247.90 82.27 247.88 84.74 250.87 C 81.99 255.16 76.53 255.78 72.86 258.98 C 77.37 258.83 82.33 258.47 85.96 261.71 C 84.68 265.13 81.28 266.65 78.36 268.38 C 77.70 270.23 77.55 272.54 75.83 273.81 C 72.44 276.30 68.44 278.76 67.01 282.96 C 68.90 286.02 72.73 288.67 71.86 292.81 C 68.38 300.17 60.40 303.81 53.14 306.46 C 45.59 309.57 36.87 306.09 31.66 300.32 C 31.92 295.44 34.88 290.93 34.05 285.96 C 33.13 278.49 39.56 272.44 39.33 265.05 C 38.25 258.61 35.63 251.38 39.24 245.27 C 49.77 231.53 63.02 220.24 75.99 208.89 C 80.84 203.75 84.57 197.54 90.24 193.18 C 95.48 188.89 102.52 187.23 109.19 187.84 C 114.19 190.97 118.81 194.88 122.93 199.11 C 128.08 208.46 131.38 219.14 139.15 226.82 C 142.46 230.23 146.58 232.75 150.99 234.48 C 155.21 227.82 157.51 219.93 163.33 214.33 C 166.05 211.24 169.89 209.51 173.87 208.72 C 175.44 196.37 179.09 183.86 187.14 174.11 C 195.44 165.44 203.69 156.71 211.78 147.83 C 213.40 146.03 213.91 143.58 214.76 141.37 C 223.21 141.28 231.92 141.00 239.92 138.00 C 245.84 134.72 252.72 130.84 254.49 123.77 C 253.37 123.40 252.25 123.09 251.11 122.84 C 247.63 124.34 246.85 128.74 243.72 130.73 C 235.35 136.46 224.76 136.78 214.97 136.79 C 209.48 136.83 205.63 129.63 199.97 131.96 C 192.57 134.01 185.06 135.64 177.54 137.18 C 173.85 144.13 167.67 151.49 159.03 151.14 C 155.75 151.60 153.46 149.08 151.59 146.82 C 149.54 146.42 147.48 146.07 145.42 145.73 C 145.38 141.73 146.71 137.53 150.14 135.18 C 156.94 130.29 165.68 129.68 172.98 125.76 C 172.66 124.83 172.33 123.91 172.00 122.99 C 163.73 122.58 156.89 128.10 148.95 129.26 C 145.83 129.89 143.18 128.01 140.59 126.64 C 138.30 125.75 134.33 126.86 133.43 123.91 C 131.79 117.34 138.26 112.93 139.63 107.02 C 139.60 104.67 139.06 102.34 139.14 99.99 C 140.78 97.22 143.79 95.33 146.89 94.57 C 158.83 91.35 169.92 85.70 180.71 79.79 C 184.30 77.78 188.07 76.01 191.16 73.25 C 194.66 70.28 197.82 66.71 202.10 64.84 C 205.71 64.13 209.41 65.15 213.06 64.85 C 219.21 63.68 224.71 60.22 228.93 55.66 C 229.21 50.74 227.33 44.87 230.61 40.65 C 236.59 35.93 244.93 36.81 251.31 40.31 C 254.73 36.91 258.39 33.71 262.60 31.33 M 267.49 36.31 C 267.97 44.41 268.58 53.11 264.39 60.43 C 262.19 62.92 257.45 65.85 260.90 69.40 C 264.24 68.31 267.52 66.51 269.30 63.36 C 273.02 57.02 272.56 49.14 270.78 42.26 C 270.08 40.11 269.75 37.44 267.49 36.31 M 238.69 61.05 C 238.17 64.04 240.39 66.37 242.35 68.26 C 243.74 65.26 242.18 62.08 242.54 58.99 C 243.86 54.48 250.16 55.82 252.23 52.03 C 246.27 50.65 239.83 55.14 238.69 61.05 M 269.99 70.00 C 268.19 71.47 269.75 73.82 271.20 74.82 C 281.53 83.65 290.16 94.37 296.97 106.10 C 299.30 111.31 301.26 116.70 303.19 122.08 C 307.83 139.12 306.17 157.18 302.16 174.17 C 300.69 181.43 296.90 187.93 294.87 195.01 C 293.76 197.76 298.39 198.51 299.18 196.27 C 302.94 187.62 305.80 178.59 308.26 169.49 C 312.24 151.56 310.78 132.74 305.90 115.13 C 301.18 101.76 292.79 90.04 283.71 79.30 C 279.90 75.40 275.80 70.36 269.99 70.00 M 201.95 78.14 C 201.55 80.68 203.82 82.39 205.17 84.22 C 205.52 80.77 207.70 78.20 210.32 76.12 C 207.54 76.55 204.16 76.01 201.95 78.14 M 211.10 86.62 C 213.96 87.38 217.50 86.97 219.48 84.57 C 220.78 81.80 217.38 80.01 215.78 78.34 C 215.28 81.63 213.62 84.47 211.10 86.62 M 149.56 99.72 C 149.55 100.30 149.54 101.47 149.54 102.05 C 151.43 103.89 151.82 106.39 151.75 108.93 C 154.71 108.13 156.40 105.73 156.82 102.78 C 154.61 101.32 152.21 100.12 149.56 99.72 Z" />
<path fill="#131516" opacity="1.00" d=" M 316.45 386.02 C 330.17 386.16 343.58 389.39 357.11 391.21 C 359.61 400.72 363.80 409.73 369.09 418.01 C 371.43 421.55 373.52 425.41 376.91 428.09 C 379.85 430.71 383.22 433.06 385.39 436.41 C 386.82 444.67 388.36 453.54 385.83 461.71 C 377.49 470.28 364.54 469.74 353.79 472.79 C 343.93 477.44 334.26 482.53 324.90 488.13 C 324.11 493.22 323.45 498.32 322.80 503.44 C 317.25 504.36 313.20 499.76 308.90 497.10 C 308.88 499.50 308.87 501.91 308.86 504.33 C 304.94 503.61 301.03 502.08 297.00 502.96 C 292.45 504.37 288.38 499.36 283.96 502.12 C 285.56 507.15 287.29 512.13 289.04 517.12 C 277.17 521.27 264.52 522.08 252.06 522.76 C 248.01 522.94 244.03 521.96 240.00 521.76 C 241.12 514.75 246.12 509.57 250.24 504.16 C 252.87 501.19 251.14 496.59 253.56 493.55 C 256.20 491.77 259.61 491.81 262.43 490.40 C 268.84 487.02 274.55 482.44 280.85 478.89 C 293.22 474.94 307.00 473.74 317.65 465.65 C 324.39 459.71 331.30 453.86 339.27 449.60 C 339.94 440.36 342.11 431.34 343.99 422.29 C 332.24 412.70 319.55 401.61 316.45 386.02 Z" />
</g>
<g id="#fcdb00ff">
<path fill="#fcdb00" opacity="1.00" d=" M 13.43 13.15 C 198.78 13.24 384.13 13.21 569.48 13.17 C 564.95 129.13 560.32 245.08 555.84 361.04 C 554.05 383.29 549.12 405.30 541.15 426.16 C 533.00 448.55 519.80 468.68 505.76 487.78 C 483.50 514.81 455.81 537.24 425.18 554.16 C 416.94 559.03 407.98 562.46 399.16 566.08 C 382.30 572.70 365.07 578.69 347.13 581.56 C 330.23 584.34 313.20 587.10 296.02 586.92 C 280.94 587.79 265.87 586.16 250.90 584.43 C 229.05 580.66 207.48 575.04 186.78 567.05 C 169.03 560.16 151.64 551.98 136.00 541.03 C 113.60 525.91 93.64 507.35 76.26 486.69 C 59.99 466.33 48.25 442.76 38.72 418.63 C 35.37 406.97 32.14 395.26 29.72 383.37 C 28.76 376.62 27.85 369.84 27.35 363.04 C 22.69 246.41 17.91 129.79 13.43 13.15 M 262.60 31.33 C 258.39 33.71 254.73 36.91 251.31 40.31 C 244.93 36.81 236.59 35.93 230.61 40.65 C 227.33 44.87 229.21 50.74 228.93 55.66 C 224.71 60.22 219.21 63.68 213.06 64.85 C 209.41 65.15 205.71 64.13 202.10 64.84 C 197.82 66.71 194.66 70.28 191.16 73.25 C 188.07 76.01 184.30 77.78 180.71 79.79 C 169.92 85.70 158.83 91.35 146.89 94.57 C 143.79 95.33 140.78 97.22 139.14 99.99 C 139.06 102.34 139.60 104.67 139.63 107.02 C 138.26 112.93 131.79 117.34 133.43 123.91 C 134.33 126.86 138.30 125.75 140.59 126.64 C 143.18 128.01 145.83 129.89 148.95 129.26 C 156.89 128.10 163.73 122.58 172.00 122.99 C 172.33 123.91 172.66 124.83 172.98 125.76 C 165.68 129.68 156.94 130.29 150.14 135.18 C 146.71 137.53 145.38 141.73 145.42 145.73 C 147.48 146.07 149.54 146.42 151.59 146.82 C 153.46 149.08 155.75 151.60 159.03 151.14 C 167.67 151.49 173.85 144.13 177.54 137.18 C 185.06 135.64 192.57 134.01 199.97 131.96 C 205.63 129.63 209.48 136.83 214.97 136.79 C 224.76 136.78 235.35 136.46 243.72 130.73 C 246.85 128.74 247.63 124.34 251.11 122.84 C 252.25 123.09 253.37 123.40 254.49 123.77 C 252.72 130.84 245.84 134.72 239.92 138.00 C 231.92 141.00 223.21 141.28 214.76 141.37 C 213.91 143.58 213.40 146.03 211.78 147.83 C 203.69 156.71 195.44 165.44 187.14 174.11 C 179.09 183.86 175.44 196.37 173.87 208.72 C 169.89 209.51 166.05 211.24 163.33 214.33 C 157.51 219.93 155.21 227.82 150.99 234.48 C 146.58 232.75 142.46 230.23 139.15 226.82 C 131.38 219.14 128.08 208.46 122.93 199.11 C 118.81 194.88 114.19 190.97 109.19 187.84 C 102.52 187.23 95.48 188.89 90.24 193.18 C 84.57 197.54 80.84 203.75 75.99 208.89 C 63.02 220.24 49.77 231.53 39.24 245.27 C 35.63 251.38 38.25 258.61 39.33 265.05 C 39.56 272.44 33.13 278.49 34.05 285.96 C 34.88 290.93 31.92 295.44 31.66 300.32 C 36.87 306.09 45.59 309.57 53.14 306.46 C 60.40 303.81 68.38 300.17 71.86 292.81 C 72.73 288.67 68.90 286.02 67.01 282.96 C 68.44 278.76 72.44 276.30 75.83 273.81 C 77.55 272.54 77.70 270.23 78.36 268.38 C 81.28 266.65 84.68 265.13 85.96 261.71 C 82.33 258.47 77.37 258.83 72.86 258.98 C 76.53 255.78 81.99 255.16 84.74 250.87 C 82.27 247.88 78.16 247.90 74.72 246.89 C 75.60 242.99 79.59 241.75 82.39 239.57 C 85.44 234.91 87.30 228.45 93.08 226.43 C 98.52 225.19 104.16 226.96 109.29 228.75 C 111.97 231.64 113.71 235.33 115.01 239.02 C 120.17 254.91 125.01 270.91 128.82 287.18 C 133.73 288.32 138.80 288.10 143.80 288.02 C 143.01 281.00 141.92 274.01 141.25 266.98 C 141.05 260.87 140.61 253.95 144.90 248.99 C 146.39 247.46 147.58 244.83 150.03 244.93 C 151.18 245.89 151.11 247.62 150.57 248.89 C 149.09 252.67 145.62 255.74 145.60 260.01 C 145.66 269.50 147.28 278.88 148.53 288.26 C 149.04 288.65 150.05 289.44 150.56 289.84 C 147.56 291.15 144.29 291.70 141.03 291.51 C 130.56 291.10 120.25 289.06 110.02 286.95 C 104.29 285.95 97.46 285.63 92.89 289.85 C 88.12 296.68 83.12 304.27 83.18 312.92 C 84.86 320.23 87.13 327.44 87.85 334.94 C 89.61 344.84 82.77 353.98 84.48 363.89 C 85.26 368.50 88.84 372.01 92.77 374.21 C 99.98 378.30 106.30 384.72 108.50 392.90 C 108.68 396.92 107.18 400.99 108.14 404.97 C 110.34 408.61 115.47 407.17 118.63 409.16 C 123.78 414.12 127.15 420.54 130.57 426.74 C 131.55 426.75 132.53 426.77 133.51 426.79 C 138.70 420.38 141.07 412.36 143.77 404.71 C 146.18 396.86 148.78 388.57 147.14 380.31 C 142.88 380.22 138.61 380.16 134.35 380.10 C 133.38 377.72 132.27 375.40 131.04 373.14 C 131.41 368.67 131.57 364.19 131.51 359.71 C 128.62 360.16 126.28 361.96 123.88 363.50 C 125.33 359.09 127.06 354.68 127.12 349.97 C 125.47 350.03 123.81 350.10 122.15 350.19 C 122.07 346.32 122.03 342.46 121.94 338.60 C 117.67 339.51 114.86 342.99 112.02 346.00 C 111.00 336.79 109.96 327.53 109.89 318.27 C 111.42 317.45 113.21 318.10 114.84 318.15 C 144.58 321.95 171.50 339.42 202.05 338.34 C 207.78 332.62 211.87 325.54 215.13 318.18 C 216.10 316.50 216.50 313.69 219.03 313.98 C 218.39 318.96 217.00 323.94 214.14 328.13 C 212.15 331.06 210.77 334.40 210.76 338.00 C 239.25 359.84 274.00 371.19 308.44 379.71 C 324.96 384.19 342.05 385.83 358.87 388.80 C 360.59 375.07 367.27 362.35 376.79 352.43 C 379.36 352.14 380.48 354.75 378.79 356.55 C 370.99 366.84 363.28 378.56 363.54 392.01 C 363.97 398.99 365.05 406.62 369.81 412.09 C 379.40 424.13 390.41 434.98 401.87 445.23 C 408.44 449.33 415.80 452.26 421.92 457.10 C 426.90 462.04 429.87 471.56 423.59 476.70 C 416.54 484.78 406.79 489.73 399.24 497.20 C 395.28 502.45 388.86 504.58 383.10 507.18 C 376.64 509.47 371.70 514.48 365.76 517.72 C 361.35 519.03 356.53 518.41 352.24 520.15 C 348.21 523.05 348.43 528.83 345.52 532.52 C 339.52 537.95 331.99 542.54 328.85 550.36 C 336.69 553.16 344.65 555.99 352.92 557.16 C 360.44 556.93 368.07 556.36 375.30 554.16 C 378.52 553.04 382.29 551.48 383.47 547.97 C 383.33 543.72 382.66 539.49 382.83 535.23 C 384.74 533.73 386.64 532.21 388.56 530.73 C 392.55 534.16 397.03 537.36 402.41 537.98 C 402.78 534.74 403.15 531.51 403.67 528.30 C 407.27 530.92 410.69 534.23 415.32 534.83 C 416.77 530.39 417.11 525.71 417.27 521.08 C 419.76 522.29 422.18 523.86 424.98 524.27 C 427.40 524.65 428.48 521.91 428.53 519.95 C 428.42 515.61 425.16 511.42 426.87 507.05 C 428.13 503.87 429.66 500.62 432.33 498.37 C 439.30 492.41 447.22 487.69 455.21 483.25 C 458.76 481.49 460.37 477.65 462.54 474.57 C 465.05 470.40 469.17 467.02 470.06 462.03 C 470.35 460.18 470.68 458.08 469.54 456.45 C 464.41 447.86 457.94 440.14 451.08 432.90 C 445.38 427.39 443.11 417.62 447.62 410.71 C 450.87 405.70 454.54 400.93 458.79 396.72 C 467.05 388.07 473.18 377.55 477.45 366.41 C 478.55 363.40 480.01 360.37 479.84 357.08 C 479.80 350.89 479.88 344.71 479.75 338.53 C 482.89 337.68 486.53 336.62 489.58 338.25 C 493.15 341.40 496.17 345.15 499.95 348.09 C 505.19 352.49 512.20 354.64 519.00 354.21 C 524.76 351.75 530.90 348.23 533.20 342.03 C 529.41 341.78 525.48 343.47 521.81 342.19 C 520.26 341.88 520.15 340.31 519.79 339.09 C 524.67 337.96 529.78 337.92 534.57 336.45 C 539.05 333.73 542.91 329.72 544.71 324.72 C 541.55 323.86 538.82 325.65 536.02 326.75 C 530.70 326.98 524.23 326.07 521.21 321.06 C 527.31 316.75 535.34 315.96 540.88 310.81 C 543.50 308.48 543.28 304.77 542.83 301.62 C 539.96 301.61 537.30 302.65 534.58 303.36 C 531.56 303.83 528.49 303.75 525.45 303.80 C 529.77 299.43 536.21 298.56 541.07 295.04 C 544.42 291.49 547.02 286.00 544.47 281.28 C 538.39 282.31 533.65 288.22 527.06 286.33 C 528.33 281.73 534.46 281.20 535.45 276.55 C 537.01 271.45 537.03 266.08 537.92 260.86 C 538.47 257.16 540.24 253.79 540.98 250.13 C 536.56 248.44 532.69 251.90 529.34 254.28 C 524.58 257.41 522.84 263.30 518.23 266.63 C 519.31 260.80 519.94 254.01 525.17 250.24 C 530.53 245.01 538.39 243.82 544.00 238.98 C 548.30 235.17 548.87 229.07 549.48 223.72 C 545.85 224.53 542.82 227.18 538.97 227.02 C 533.60 227.28 528.42 228.82 523.46 230.80 C 524.08 223.89 530.77 220.56 534.76 215.77 C 537.15 211.44 539.94 207.25 544.08 204.38 C 543.73 203.61 543.34 202.88 542.90 202.18 C 535.90 202.75 529.92 207.20 522.91 207.75 C 527.37 204.60 532.06 201.65 535.92 197.75 C 538.13 193.55 537.11 188.54 538.21 184.05 C 540.15 181.61 542.48 179.47 544.14 176.79 C 541.14 174.72 537.48 176.07 534.59 177.58 C 528.21 180.94 522.83 185.81 517.42 190.50 C 516.01 191.96 513.84 191.68 512.02 191.98 C 506.51 192.41 501.04 193.23 495.52 193.38 C 496.52 192.06 497.90 191.15 499.38 190.45 C 510.59 184.34 524.04 182.32 533.79 173.63 C 536.27 169.56 535.74 163.86 532.92 160.04 C 530.51 156.42 525.43 154.87 524.76 150.13 C 527.97 147.52 532.24 146.91 535.55 144.50 C 538.44 142.20 538.29 138.18 538.59 134.84 C 536.01 131.66 533.19 128.46 529.37 126.76 C 525.12 124.72 520.12 125.04 515.77 126.57 C 514.49 126.70 514.52 128.13 514.18 129.04 C 516.67 129.88 519.77 130.16 521.42 132.46 C 522.31 133.79 521.30 135.26 520.95 136.59 C 515.34 137.80 507.10 138.32 505.46 145.08 C 503.71 151.80 510.91 155.25 514.84 159.22 C 514.82 160.50 514.79 161.78 514.77 163.06 C 504.41 167.51 493.06 168.62 481.93 169.42 C 465.81 172.35 451.75 183.03 443.47 197.04 C 438.82 192.46 435.70 185.09 428.71 183.83 C 428.58 187.54 428.75 191.25 428.84 194.96 C 429.17 201.40 426.21 207.32 424.57 213.41 C 422.64 219.97 420.87 227.43 424.01 233.91 C 425.36 237.07 428.42 238.87 430.60 241.38 C 435.33 248.59 437.54 257.29 442.84 264.14 C 449.90 269.91 457.62 274.84 465.29 279.77 C 468.66 282.00 472.58 283.64 475.11 286.93 C 478.05 290.51 481.26 294.28 482.04 298.99 C 482.72 302.75 480.67 306.45 477.77 308.72 C 473.59 312.05 469.13 315.35 463.79 316.48 C 457.73 310.11 452.64 302.54 444.98 297.90 C 440.16 294.84 435.99 290.87 431.16 287.84 C 420.53 282.59 408.35 283.41 396.90 282.08 C 370.55 272.85 343.82 263.33 320.57 247.50 C 316.21 244.72 312.78 240.81 309.01 237.33 C 312.84 238.01 316.71 238.81 320.63 238.62 C 322.01 237.64 323.31 235.69 322.15 234.05 C 320.93 232.08 318.92 230.80 317.18 229.36 C 319.68 229.03 322.18 228.64 324.66 228.16 C 324.06 225.86 323.07 223.71 321.95 221.62 C 325.88 221.80 329.95 222.80 333.82 221.68 C 335.36 221.09 337.66 220.00 336.98 217.94 C 336.20 213.78 331.21 212.96 328.83 209.95 C 339.99 210.69 352.62 213.10 362.33 205.97 C 358.78 198.06 349.02 197.42 341.74 195.20 C 341.32 194.47 340.49 193.02 340.08 192.29 C 348.36 192.28 356.61 193.59 364.89 193.29 C 370.26 191.93 376.97 191.02 380.04 185.80 C 375.73 184.22 370.93 183.60 367.50 180.28 C 360.87 177.46 353.16 180.24 346.42 177.71 C 350.18 175.75 354.16 174.26 358.21 173.02 C 358.11 172.30 357.91 170.87 357.81 170.15 C 354.18 168.34 350.18 167.02 347.20 164.14 C 354.50 163.58 361.94 163.80 369.07 161.87 C 374.58 160.84 378.41 156.41 383.15 153.78 C 383.06 153.07 382.89 151.67 382.80 150.97 C 373.03 150.72 362.48 151.40 353.86 145.93 C 357.66 143.90 361.60 141.59 366.02 141.45 C 373.18 141.67 380.73 143.22 387.61 140.47 C 390.00 139.65 391.23 137.38 391.62 135.01 C 383.17 134.51 375.31 131.14 368.00 127.10 C 361.56 123.59 354.10 125.26 347.18 125.64 C 350.27 123.52 354.18 123.06 357.20 120.82 C 357.19 120.35 357.18 119.40 357.17 118.93 C 352.62 117.42 347.49 117.55 343.36 114.89 C 352.62 112.49 362.47 113.33 371.59 110.29 C 374.70 108.56 377.14 105.41 380.92 105.08 C 383.01 104.92 384.60 103.63 385.87 102.05 C 380.98 95.29 372.10 92.71 364.12 93.92 C 357.94 95.80 351.50 98.00 344.97 96.50 C 349.48 93.55 354.79 91.36 357.82 86.65 C 354.82 85.66 351.92 84.43 349.12 82.98 C 343.67 80.34 337.50 81.91 331.77 82.34 C 334.85 80.16 337.88 77.86 341.29 76.19 C 347.42 72.95 354.84 74.16 360.99 70.92 C 363.94 69.66 365.71 66.86 366.59 63.88 C 363.01 63.91 359.42 64.33 355.85 64.05 C 351.95 62.70 348.30 60.41 344.08 60.20 C 337.22 59.61 331.27 63.64 324.92 65.45 C 321.17 65.92 317.06 65.72 313.88 63.46 C 318.94 58.92 323.70 54.04 329.18 49.98 C 329.08 47.97 326.87 47.92 325.41 47.38 C 319.42 45.90 313.23 45.60 307.09 45.27 C 302.86 44.90 298.81 46.39 294.67 46.93 C 298.05 45.01 301.53 43.27 304.78 41.12 C 304.58 40.42 304.19 39.01 303.99 38.31 C 294.74 38.29 285.56 36.87 276.31 36.76 C 273.10 32.49 270.09 28.06 266.86 23.81 C 264.68 25.82 263.77 28.69 262.60 31.33 M 316.45 386.02 C 319.55 401.61 332.24 412.70 343.99 422.29 C 342.11 431.34 339.94 440.36 339.27 449.60 C 331.30 453.86 324.39 459.71 317.65 465.65 C 307.00 473.74 293.22 474.94 280.85 478.89 C 274.55 482.44 268.84 487.02 262.43 490.40 C 259.61 491.81 256.20 491.77 253.56 493.55 C 251.14 496.59 252.87 501.19 250.24 504.16 C 246.12 509.57 241.12 514.75 240.00 521.76 C 244.03 521.96 248.01 522.94 252.06 522.76 C 264.52 522.08 277.17 521.27 289.04 517.12 C 287.29 512.13 285.56 507.15 283.96 502.12 C 288.38 499.36 292.45 504.37 297.00 502.96 C 301.03 502.08 304.94 503.61 308.86 504.33 C 308.87 501.91 308.88 499.50 308.90 497.10 C 313.20 499.76 317.25 504.36 322.80 503.44 C 323.45 498.32 324.11 493.22 324.90 488.13 C 334.26 482.53 343.93 477.44 353.79 472.79 C 364.54 469.74 377.49 470.28 385.83 461.71 C 388.36 453.54 386.82 444.67 385.39 436.41 C 383.22 433.06 379.85 430.71 376.91 428.09 C 373.52 425.41 371.43 421.55 369.09 418.01 C 363.80 409.73 359.61 400.72 357.11 391.21 C 343.58 389.39 330.17 386.16 316.45 386.02 Z" />
<path fill="#fcdb00" opacity="1.00" d=" M 267.49 36.31 C 269.75 37.44 270.08 40.11 270.78 42.26 C 272.56 49.14 273.02 57.02 269.30 63.36 C 267.52 66.51 264.24 68.31 260.90 69.40 C 257.45 65.85 262.19 62.92 264.39 60.43 C 268.58 53.11 267.97 44.41 267.49 36.31 Z" />
<path fill="#fcdb00" opacity="1.00" d=" M 238.69 61.05 C 239.83 55.14 246.27 50.65 252.23 52.03 C 250.16 55.82 243.86 54.48 242.54 58.99 C 242.18 62.08 243.74 65.26 242.35 68.26 C 240.39 66.37 238.17 64.04 238.69 61.05 Z" />
<path fill="#fcdb00" opacity="1.00" d=" M 269.99 70.00 C 275.80 70.36 279.90 75.40 283.71 79.30 C 292.79 90.04 301.18 101.76 305.90 115.13 C 310.78 132.74 312.24 151.56 308.26 169.49 C 305.80 178.59 302.94 187.62 299.18 196.27 C 298.39 198.51 293.76 197.76 294.87 195.01 C 296.90 187.93 300.69 181.43 302.16 174.17 C 306.17 157.18 307.83 139.12 303.19 122.08 C 301.26 116.70 299.30 111.31 296.97 106.10 C 290.16 94.37 281.53 83.65 271.20 74.82 C 269.75 73.82 268.19 71.47 269.99 70.00 Z" />
<path fill="#fcdb00" opacity="1.00" d=" M 201.95 78.14 C 204.16 76.01 207.54 76.55 210.32 76.12 C 207.70 78.20 205.52 80.77 205.17 84.22 C 203.82 82.39 201.55 80.68 201.95 78.14 Z" />
<path fill="#fcdb00" opacity="1.00" d=" M 211.10 86.62 C 213.62 84.47 215.28 81.63 215.78 78.34 C 217.38 80.01 220.78 81.80 219.48 84.57 C 217.50 86.97 213.96 87.38 211.10 86.62 Z" />
<path fill="#fcdb00" opacity="1.00" d=" M 149.56 99.72 C 152.21 100.12 154.61 101.32 156.82 102.78 C 156.40 105.73 154.71 108.13 151.75 108.93 C 151.82 106.39 151.43 103.89 149.54 102.05 C 149.54 101.47 149.55 100.30 149.56 99.72 Z" />
</g>
</svg>
