<?xml version="1.0" encoding="UTF-8" standalone="no"?>
<!-- Created with Inkscape (http://www.inkscape.org/) -->

<svg
   xmlns:dc="http://purl.org/dc/elements/1.1/"
   xmlns:cc="http://creativecommons.org/ns#"
   xmlns:rdf="http://www.w3.org/1999/02/22-rdf-syntax-ns#"
   xmlns:svg="http://www.w3.org/2000/svg"
   xmlns="http://www.w3.org/2000/svg"
   xmlns:sodipodi="http://sodipodi.sourceforge.net/DTD/sodipodi-0.dtd"
   xmlns:inkscape="http://www.inkscape.org/namespaces/inkscape"
   width="283.46457"
   height="283.46457"
   id="svg3425"
   version="1.1"
   inkscape:version="0.48.4 r9939"
   sodipodi:docname="gdg_stuttgart_wappen.svg">
  <defs
     id="defs3427">
    <radialGradient
       id="SVGID_1_"
       cx="106.8687"
       cy="360.1709"
       r="80.393799"
       gradientUnits="userSpaceOnUse">
      <stop
         offset="0"
         style="stop-color:#FFCE4E"
         id="stop91" />
      <stop
         offset="1"
         style="stop-color:#F5C337"
         id="stop93" />
    </radialGradient>
    <radialGradient
       id="SVGID_2_"
       cx="106.8701"
       cy="360.17191"
       r="80.391998"
       gradientUnits="userSpaceOnUse">
      <stop
         offset="0"
         style="stop-color:#0DA960"
         id="stop98" />
      <stop
         offset="1"
         style="stop-color:#05924B"
         id="stop100" />
    </radialGradient>
    <radialGradient
       id="SVGID_3_"
       cx="106.8687"
       cy="360.17331"
       r="80.390297"
       gradientUnits="userSpaceOnUse">
      <stop
         offset="0"
         style="stop-color:#577EC0"
         id="stop105" />
      <stop
         offset="1"
         style="stop-color:#557EBF"
         id="stop107" />
    </radialGradient>
    <radialGradient
       id="SVGID_4_"
       cx="106.8711"
       cy="360.17331"
       r="80.385902"
       gradientUnits="userSpaceOnUse">
      <stop
         offset="0"
         style="stop-color:#E04B3F"
         id="stop112" />
      <stop
         offset="1"
         style="stop-color:#CD382D"
         id="stop114" />
    </radialGradient>
    <linearGradient
       id="SVGID_5_"
       gradientUnits="userSpaceOnUse"
       x1="141.16991"
       y1="404.8623"
       x2="121.8034"
       y2="404.8623">
      <stop
         offset="0"
         style="stop-color:#231F20;stop-opacity:0.2"
         id="stop119" />
      <stop
         offset="1"
         style="stop-color:#F2F2F2;stop-opacity:0.25"
         id="stop121" />
    </linearGradient>
    <radialGradient
       id="SVGID_6_"
       cx="128.46581"
       cy="395.99509"
       r="28.153"
       gradientUnits="userSpaceOnUse">
      <stop
         offset="0"
         style="stop-color:#FFFFFF;stop-opacity:0.1"
         id="stop128" />
      <stop
         offset="0.0896"
         style="stop-color:#FFFFFF;stop-opacity:0.091"
         id="stop130" />
      <stop
         offset="1"
         style="stop-color:#FFFFFF;stop-opacity:0"
         id="stop132" />
    </radialGradient>
  </defs>
  <sodipodi:namedview
     id="base"
     pagecolor="#ffffff"
     bordercolor="#666666"
     borderopacity="1.0"
     inkscape:pageopacity="0.0"
     inkscape:pageshadow="2"
     inkscape:zoom="0.7"
     inkscape:cx="60.533788"
     inkscape:cy="-68.175539"
     inkscape:document-units="px"
     inkscape:current-layer="layer6"
     showgrid="false"
     showguides="true"
     inkscape:guide-bbox="true"
     inkscape:window-width="1317"
     inkscape:window-height="744"
     inkscape:window-x="49"
     inkscape:window-y="24"
     inkscape:window-maximized="1"
     units="mm"
     fit-margin-top="0"
     fit-margin-left="0"
     fit-margin-right="0"
     fit-margin-bottom="0" />
  <metadata
     id="metadata3430">
    <rdf:RDF>
      <cc:Work
         rdf:about="">
        <dc:format>image/svg+xml</dc:format>
        <dc:type
           rdf:resource="http://purl.org/dc/dcmitype/StillImage" />
      </cc:Work>
    </rdf:RDF>
  </metadata>
  <g
     inkscape:groupmode="layer"
     id="layer6"
     inkscape:label="back"
     style="display:inline"
     transform="translate(-354.97383,-297.28233)">
    <path
       id="path3328-8"
       d="m 442.28841,310.37736 c 66.15738,26.36387 132.29713,52.75907 198.43938,79.16005 -8.5596,16.47398 -16.82085,33.09578 -25.44549,49.53902 -7.60319,15.01044 -15.44985,29.9046 -23.08224,44.90341 -9.11879,17.98575 -20.38075,35.16445 -35.08943,49.19496 -11.55847,11.11298 -25.39472,20.10958 -40.76885,25.11877 -16.64046,5.46247 -34.99384,6.02424 -51.82009,0.99377 -8.54385,-2.89566 -16.9831,-6.39177 -24.36825,-11.61442 -10.57243,-7.23702 -19.42074,-16.86773 -25.82923,-27.87823 -6.87127,-11.74144 -10.92999,-24.96797 -12.58852,-38.39678 -2.94351,-24.04393 1.43285,-48.39301 8.94968,-71.25441 7.956,-25.25499 15.90119,-50.51903 23.90061,-75.76148 2.60334,-7.99045 5.21087,-15.97922 7.70243,-24.00466 m 73.48991,53.6588 c -2.10932,1.15219 -4.95243,0.69368 -6.61011,2.66341 -0.20764,-0.0494 -0.61487,-0.1446 -0.82262,-0.194 0.52616,-0.84922 0.95703,-1.9282 1.9527,-2.3361 1.35598,-0.26898 2.7569,-0.25653 4.12838,-0.43299 -1.47018,-1.08969 -3.03897,-2.1756 -4.86201,-2.56744 -1.68112,-0.13379 -2.56958,1.49571 -3.44816,2.62616 -3.3407,-0.20172 -6.67006,0.23363 -10.00358,0.39429 -3.30273,0.1922 -6.58853,0.56817 -9.84728,1.12756 -1.64083,0.33748 -3.28603,-0.0744 -4.92204,-0.19992 -1.81888,-0.141 -3.51382,0.94655 -4.5344,2.36536 -0.52973,1.45163 -0.87016,2.97402 -1.62253,4.34165 2.25672,1.60959 4.95948,2.37629 7.3942,3.66868 -0.0389,0.23826 -0.11913,0.71929 -0.16004,0.96176 -2.25716,0.10112 -4.50779,0.28162 -6.76814,0.34319 0.88763,1.56657 1.55165,3.60948 3.39803,4.28855 2.03354,0.89756 4.14026,-0.23646 6.18577,-0.48442 2.14233,-0.4968 4.2859,0.19066 6.36508,0.65583 0.45146,0.86545 0.8176,1.79744 1.44222,2.55944 1.99292,2.13695 5.32148,2.21401 7.9764,1.47116 1.32836,-0.28473 2.45652,-1.39703 3.87936,-1.1649 -2.02304,1.86718 -4.73676,3.00344 -7.51863,2.97676 -1.46489,0.14408 -2.89064,-0.49662 -4.33396,-0.31038 -2.4759,0.91006 -4.93373,1.9184 -7.22637,3.22278 -4.22983,2.16564 -7.8115,5.30879 -11.72472,7.94586 -3.02194,1.43987 -6.40021,2.56504 -8.52869,5.29592 -0.83113,-1.19423 -1.56279,-2.45415 -2.3613,-3.66894 -1.76451,-2.55383 -2.59654,-5.59828 -3.29022,-8.57797 -0.0916,-1.85297 0.17883,-3.83438 -0.93376,-5.46687 -1.9384,-0.0975 -3.83097,-1.22164 -5.77536,-0.74645 -1.65251,0.86478 -2.8013,2.44321 -4.47876,3.27406 -3.65052,1.67317 -7.17352,3.67514 -11.08008,4.72858 -1.70364,0.38428 -2.56037,2.00745 -3.57781,3.24054 -0.17368,1.0426 -0.31802,2.09684 -0.53835,3.13517 -0.26561,1.6241 -1.73327,2.65366 -3.04918,3.4658 -1.22395,0.77695 -2.74562,0.39514 -4.09969,0.33897 0.86991,0.55312 2.27705,0.71671 2.44952,1.89738 -0.57159,1.75605 -1.87602,3.18138 -2.47605,4.93576 2.72342,1.36917 5.8914,2.07705 8.93374,1.58463 1.85387,-0.37226 2.54287,-2.29717 3.33895,-3.74798 -1.45832,-0.62012 -2.9167,-1.24019 -4.36074,-1.88341 0.74885,-1.56076 2.73417,-0.46201 4.09876,-0.57419 1.06396,-1.95263 3.24864,-2.64818 5.32438,-2.94634 0.38068,-1.84659 0.12119,-3.77603 -1.10222,-5.28008 1.93611,-1.298 4.24622,-1.79014 6.37054,-2.68238 1.29491,-0.52332 2.55033,-1.21111 3.96921,-1.32555 1.56032,4.0395 2.79052,8.43614 1.88187,12.77501 -0.15438,1.25642 -0.66803,2.68089 0.062,3.84928 1.12736,1.51365 2.74382,2.56588 4.10154,3.85994 0.92656,-2.60171 1.64543,-5.52588 4.16185,-7.1051 -0.25396,1.41782 -1.1287,2.62168 -1.50042,4.00698 -0.52878,1.93608 -0.69708,3.96321 -1.38433,5.86005 -2.32146,-0.69126 -4.19509,-2.25345 -6.14287,-3.6104 -2.01971,-1.32332 -3.18221,-3.61779 -5.33352,-4.77317 -0.99246,-0.62118 -2.15178,0.0569 -2.92288,0.72219 -1.29627,1.22729 -3.14008,2.39435 -3.01285,4.41001 0.0129,5.81323 -3.01352,10.98987 -4.14909,16.58494 0.21407,0.74668 0.41775,1.49416 0.60412,2.24903 1.30103,1.51588 2.85551,2.89802 3.64449,4.7655 0.25746,2.07716 -0.4972,4.11489 -1.38383,5.9657 0.43152,-0.22565 0.85884,-0.4529 1.29038,-0.67852 0.19504,0.0921 0.58526,0.27662 0.78032,0.36879 0.69416,1.49421 1.29882,3.02942 1.87419,4.57687 0.92088,0.55909 1.72625,-0.40401 2.41662,-0.89538 1.83647,-1.75465 3.74695,-3.6667 4.5003,-6.141 0.45719,-1.47579 -0.0759,-2.9968 -0.84657,-4.26752 -1.33961,1.19083 -2.72993,2.32792 -4.0122,3.58002 -0.2852,-0.1091 -0.85391,-0.33107 -1.1391,-0.44006 0.96856,-1.61204 2.43015,-2.81659 3.63439,-4.23398 -0.34182,-0.16029 -1.02881,-0.47273 -1.37064,-0.63308 -0.8258,-2.37102 1.22645,-4.22649 2.11768,-6.21925 -1.73186,-0.98324 -3.53676,-1.84705 -5.48653,-2.3086 0.58497,-2.83379 1.70049,-5.51825 2.7677,-8.20284 3.6439,1.22845 5.69541,4.63479 7.85547,7.53811 2.70144,3.83341 5.66489,7.96299 10.15935,9.82788 3.0276,-1.39449 4.93846,-4.22175 6.15757,-7.19552 0.16519,0.0702 0.49358,0.21613 0.65869,0.28673 -0.84585,2.95018 -2.42297,5.58948 -3.81244,8.30361 3.54945,4.98642 7.33987,9.81015 11.61421,14.20869 2.13633,2.18936 4.80734,3.75815 7.00321,5.88496 5.30046,4.11783 11.25767,7.30431 17.17739,10.45188 0.19298,0.19195 0.5717,0.58271 0.76313,0.7789 -0.71223,2.16001 -1.25943,4.36671 -1.93832,6.54002 -0.0597,1.22699 -0.1446,2.46792 -0.52077,3.65019 -0.33189,-0.38639 -0.69888,-0.78201 -0.69806,-1.31843 -0.36266,-2.5553 -0.3094,-5.15555 0.20533,-7.68671 -3.21067,-1.73137 -6.51288,-3.29791 -9.54395,-5.32664 -0.19915,2.42237 -0.22797,4.86916 0.0607,7.2848 0.55816,4.11891 3.3141,7.60501 3.90239,11.69765 -1.0927,2.86606 -1.79103,6.16745 -4.11569,8.3456 -2.83904,1.70453 -5.49453,3.70753 -8.44828,5.21775 -2.27978,1.21358 -5.00243,1.19616 -7.24572,2.48657 -1.12644,0.56184 -2.14012,1.3939 -3.38509,1.68799 -1.37398,0.17059 -2.75069,-0.11501 -4.08911,-0.37568 -0.49615,2.73505 -3.32352,3.88834 -4.71302,6.0801 2.40959,2.12584 5.52454,3.22474 8.67757,3.64869 2.01543,0.0281 3.70023,-1.28428 4.903,-2.76937 -1.39196,-0.74699 -2.73944,-1.56729 -4.06932,-2.41898 0.1904,-0.26427 0.57527,-0.79127 0.77146,-1.05809 1.35494,0.31532 2.5396,1.14256 3.91139,1.39269 1.15505,-0.10961 2.15186,-0.87642 3.32576,-0.87776 1.89445,0.003 3.744,0.47282 5.60826,0.77563 0.69577,-1.41895 0.76583,-2.9917 0.30549,-4.48852 2.01785,-1.28446 4.04656,-2.55987 6.184,-3.63855 3.01602,-1.68663 6.73964,-0.57018 9.80449,-2.1271 0.48352,-0.28159 0.95147,-0.67958 1.07263,-1.24947 0.57074,-2.01517 0.89036,-4.0922 1.48781,-6.10153 1.4044,1.84466 2.56947,3.84781 3.95465,5.70397 1.21304,1.62454 2.87409,2.82873 4.24455,4.30522 1.16731,2.62709 2.03532,5.39355 2.84401,8.15075 -2.00779,2.60163 -4.42031,4.86453 -7.04986,6.83957 -2.39492,1.98234 -5.4992,2.78074 -8.02789,4.55637 -2.09432,1.43614 -4.74965,1.25385 -7.16202,1.08223 -0.42187,2.73116 -3.17747,3.89866 -4.9655,5.65347 2.58484,2.14783 5.70928,3.68661 9.02778,4.31077 2.21154,0.33115 4.09647,-1.17413 5.50887,-2.66184 -1.52219,-1.03376 -3.1282,-1.9333 -4.71834,-2.85999 0.37761,-0.34298 0.75772,-0.68017 1.13865,-1.00746 1.44855,0.54913 2.87942,1.12955 4.30777,1.72813 1.34838,-0.78482 2.67823,-1.79742 4.30167,-1.90219 1.74202,-0.13406 3.42257,0.4644 5.10634,0.80542 0.26783,-1.00023 0.67945,-2.06769 0.28357,-3.09303 -0.20095,-0.98103 -1.07775,-2.1696 -0.0991,-3.01084 1.61016,-1.73472 3.32275,-3.37583 5.12014,-4.91605 2.85621,-2.36384 7.2874,-3.24151 8.59783,-7.10384 0.70577,-1.14663 -0.28411,-2.30832 -0.72757,-3.34786 -1.9142,-3.27967 -1.86758,-7.20527 -3.24681,-10.67897 -0.35912,-0.77103 0.57416,-1.25179 1.0364,-1.6952 4.64254,-3.56818 9.75087,-6.84037 12.97682,-11.83149 1.16925,-1.69975 1.2609,-3.77668 1.82384,-5.68952 0.37939,0.15129 1.13158,0.44662 1.511,0.59799 0.21124,1.08586 0.33526,2.24242 0.9685,3.18517 0.82585,1.30232 2.24252,2.15504 2.94536,3.5329 0.59151,1.74558 -0.95324,3.11822 -1.94313,4.34317 1.13737,-0.87379 2.27729,-1.74174 3.49447,-2.50221 0.4258,-0.79341 0.83074,-1.59513 1.24654,-2.38777 0.27541,0.80957 0.54928,1.62333 0.82894,2.43462 0.91216,0.40219 1.82518,0.7904 2.74066,1.18438 0.32993,0.48627 0.66574,0.97007 1.00401,1.45966 0.31455,-0.99593 1.03252,-2.04183 0.52739,-3.0964 -0.59244,-1.70765 -0.92001,-3.48214 -1.31272,-5.23947 1.25724,1.89617 3.44941,2.53587 5.26072,3.75207 1.20003,0.19607 2.39662,0.40021 3.57205,0.71576 0.008,-2.1341 -2.13526,-3.34395 -3.08405,-5.09307 0.0589,-0.16827 0.17651,-0.51445 0.23517,-0.68259 1.53003,0.38513 2.72761,1.34694 3.71667,2.5227 1.25776,0.13765 2.50469,-0.25628 3.76299,-0.26245 -0.0844,-0.24469 -0.24933,-0.73194 -0.33341,-0.9765 -1.66769,-0.96241 -2.33495,-2.77179 -3.21579,-4.35486 2.1334,0.73606 4.69609,-0.42212 6.42779,1.4045 0.65815,-0.0679 1.31467,-0.15592 1.9737,-0.23826 -0.81189,-1.22966 -1.58435,-2.49632 -2.51254,-3.64301 -1.50489,-0.94542 -3.43649,-1.08336 -4.79604,-2.30149 -1.43468,-1.24809 -3.3933,-1.27227 -5.16131,-1.65647 2.15051,-0.99197 4.75279,-1.46347 6.93995,-0.289 1.75221,0.88593 3.79759,1.20828 5.66759,0.48779 0.70011,0.37514 1.3877,0.76927 2.05259,1.20707 0.97683,0.005 1.95908,-0.0955 2.91325,-0.31872 0.55283,0.22565 1.10399,0.45483 1.65763,0.69008 0.57388,-0.0875 1.15026,-0.16879 1.72488,-0.24649 -0.54704,-2.34128 -2.53311,-3.99626 -4.69356,-4.89169 1.54205,0.0129 3.06738,-0.23311 4.60361,-0.21921 1.0786,0.29131 1.80285,1.23681 2.66076,1.89058 0.31077,-0.0486 0.92222,-0.14486 1.23299,-0.19374 0.0947,-0.10112 0.28984,-0.30609 0.3845,-0.40731 -0.88338,-0.79331 -1.47878,-1.81682 -2.1211,-2.79675 -0.57975,-0.97887 -1.75936,-1.27214 -2.70116,-1.79163 -0.72615,-1.14277 -1.58198,-2.19345 -2.31318,-3.32385 0.77039,0.34568 1.53812,0.73341 2.2229,1.24142 0.29422,0.14615 0.88107,0.44256 1.17534,0.58873 1.43298,-0.0898 3.11256,-0.52196 4.18738,0.71679 1.12661,1.23061 3.04764,1.81008 4.49037,0.7466 -1.24382,-0.86043 -2.26563,-1.96775 -2.89339,-3.33965 -1.10011,-2.22165 -4.16684,-1.93067 -5.60958,-3.80016 -1.1615,-1.28771 -2.55586,-2.3376 -4.07861,-3.17992 2.04533,-0.72239 4.14567,0.17805 5.80175,1.37043 1.87433,1.34681 3.96414,2.41533 6.2149,3.0065 1.20427,0.17368 2.27924,-0.4997 3.26959,-1.07268 0.76896,-1.85943 0.1446,-3.80979 0.0291,-5.7107 1.36336,0.81706 2.60897,2.17179 4.35701,1.73817 0.47194,-0.87089 0.87073,-1.84757 0.51064,-2.82992 -0.75857,-2.51194 -2.20835,-4.79164 -3.9564,-6.74462 -0.0445,0.0733 -0.1253,0.22333 -0.1693,0.29661 1.13372,1.89 2.68475,4.09984 1.69324,6.37368 -1.14107,-0.8865 -2.35383,-1.81124 -3.88947,-1.74331 -0.39673,0.57975 -0.79931,1.16199 -1.18276,1.75664 0.15155,0.94702 0.5726,2.45693 -0.73757,2.76813 -0.72101,-0.11038 -1.38286,-0.46061 -1.94751,-0.90633 -2.04203,-1.64855 -4.01375,-3.37447 -6.0407,-5.03611 -2.64067,-2.18929 -5.93313,-3.93409 -9.43699,-4.03317 -3.70849,0.18834 -5.95528,3.64838 -9.22376,4.9084 1.07736,-1.16608 2.69629,-1.97236 3.15472,-3.58187 0.49448,-1.38903 -0.43149,-2.70733 -0.77972,-4.01565 -0.53413,-1.93353 -1.94372,-3.44478 -3.27676,-4.88237 1.06265,1.66036 2.03063,3.42198 2.46372,5.35361 0.29798,1.36011 -0.68547,2.66432 -1.9244,3.15733 -1.97475,0.84641 -4.34108,1.1676 -5.7427,2.96155 -2.32102,3.16682 -2.39476,7.23017 -2.56016,10.98379 -0.16184,3.17511 0.18114,6.56138 -1.47324,9.43812 -0.93284,1.67901 -1.67891,3.94536 -3.78954,4.45963 -2.09293,0.73217 -4.29676,-0.17574 -6.13305,-1.15276 -2.53785,-1.9661 -3.76811,-5.02092 -5.17212,-7.78075 -0.90278,-2.05191 -2.32751,-3.79921 -3.61092,-5.61958 -1.1517,-1.73906 -3.29058,-2.3431 -4.90737,-3.54881 -5.25021,-3.64728 -10.20748,-7.7863 -14.42714,-12.58001 -2.73662,-2.99914 -4.32707,-6.7631 -6.39859,-10.1918 0.40813,-1.26059 0.99097,-2.62873 2.32355,-3.16106 1.94959,-1.08171 4.21228,-0.56724 6.32302,-0.58301 -1.01932,-1.37473 -2.29725,-2.5315 -3.49491,-3.74256 0.0576,-0.21201 0.18037,-0.63241 0.23826,-0.84435 1.37753,1.09113 2.58108,2.54891 4.406,2.88873 1.96729,0.45416 3.72758,1.43913 5.60394,2.13983 -0.51254,-1.36906 -1.15911,-2.8491 -2.52696,-3.57209 -1.43286,-0.75376 -2.625,-1.84757 -3.49663,-3.19214 0.0985,-0.18114 0.29479,-0.54375 0.39053,-0.73076 0.79704,0.6486 1.61242,1.27582 2.432,1.90472 3.1364,0.14408 5.88751,1.70654 8.8506,2.52439 -1.29777,-2.29571 -3.48742,-3.99836 -5.71733,-5.37679 -0.46186,-0.22231 -0.91957,-0.44354 -1.3789,-0.66031 -0.32013,-0.68843 -0.62436,-1.38008 -0.92111,-2.07837 1.02771,0.30935 2.05428,0.68056 3.13626,0.71442 0.91439,0.2308 1.82106,0.49165 2.7405,0.70987 -1.00895,-1.74439 -3.30638,-2.36379 -3.98401,-4.32588 1.38306,0.38883 2.64409,1.0884 3.94806,1.67093 1.33655,0.58589 2.81581,0.14563 4.21612,0.34964 1.79574,0.85058 3.57816,2.75496 5.71509,1.84384 -0.99313,-0.92816 -1.90003,-1.93696 -2.91914,-2.83714 -1.60442,-1.42601 -3.86179,-1.77542 -5.49302,-3.15944 -0.94303,-0.68293 -1.65735,-1.60529 -2.29136,-2.55792 1.26939,0.42971 2.48742,0.99711 3.75431,1.44502 1.87806,0.67256 3.98944,0.1922 5.80845,1.08074 1.71675,0.7472 3.53864,1.52195 5.4502,1.11513 -1.2732,-1.07342 -2.32357,-2.38385 -3.61859,-3.42769 -1.72324,-0.8264 -3.71551,-1.0413 -5.35961,-2.06139 -1.09548,-0.77254 -1.84666,-1.90131 -2.6533,-2.94199 0.54355,-0.26239 1.08285,-0.52649 1.62639,-0.78891 -0.27304,-0.2576 -0.8108,-0.76914 -1.08555,-1.02251 1.96284,0.29896 3.93821,0.57901 5.92284,0.30207 1.98304,0.49881 3.91585,1.2986 6.00914,1.26623 0.17316,-0.30482 0.34424,-0.60551 0.51964,-0.90456 -1.74544,-0.65316 -2.87952,-2.15034 -4.3742,-3.16837 -1.40959,-0.98888 -3.23593,-0.874 -4.76746,-1.57604 -1.26347,-0.45611 -2.25245,-1.38263 -3.32709,-2.14681 0.24598,-0.15103 0.73197,-0.45081 0.97792,-0.6019 1.42693,-0.0154 2.92022,0.36465 4.29616,-0.15515 -1.11334,-0.94257 -2.24327,-1.91573 -3.59816,-2.50417 -1.13958,-0.56964 -2.60822,-0.82009 -3.18872,-2.08202 1.08455,0.26494 2.13878,0.62799 3.225,0.88879 1.8601,0.30117 3.82659,-0.57252 5.5972,0.31594 1.28205,0.38683 2.88994,1.2344 4.00742,0.0651 -2.33883,-0.98098 -3.95727,-3.00207 -6.13763,-4.21694 -3.05608,-2.03872 -6.77857,-2.69465 -9.98172,-4.43258 2.51307,-0.52626 5.17623,0.62246 7.57126,-0.58829 -1.23965,-0.60955 -2.47749,-1.24716 -3.51071,-2.17213 -1.69982,-1.63182 -4.16265,-1.95301 -6.19825,-2.99991 1.33251,-0.25913 2.69205,-0.335 4.0401,-0.50171 -2.36394,-0.96703 -4.63045,-2.12524 -6.82895,-3.41445 -1.27543,1.75803 -2.45754,3.57246 -3.60965,5.40842 3.44594,4.7055 4.66296,10.6544 4.75937,16.36713 0.12917,3.85193 -1.24093,7.52756 -2.78895,10.99795 -2.96021,6.77457 -7.6207,12.60725 -12.13588,18.41642 -0.14769,-0.0304 -0.44551,-0.0962 -0.59745,-0.1284 -0.12325,-1.17058 -0.5314,-2.52197 0.41675,-3.4904 3.83449,-4.94973 7.93255,-9.80863 10.57302,-15.52699 2.58115,-5.97687 3.52297,-12.89049 1.38769,-19.14344 -0.78103,-3.33564 -2.72486,-6.21022 -4.74854,-8.92494 1.0814,0.20147 2.00812,-0.31071 2.61612,-1.1704 1.73662,-2.38878 3.10499,-5.01553 4.55495,-7.58096 -1.46411,1.22272 -2.69545,2.75391 -4.3866,3.68953 z"
       inkscape:connector-curvature="0"
       style="fill:#f7c53a;fill-opacity:1;display:inline" />
  </g>
  <g
     inkscape:groupmode="layer"
     id="layer4"
     inkscape:label="logo"
     style="display:inline"
     transform="translate(-354.97383,-297.28233)">
    <g
       style="display:inline"
       id="g3340"
       transform="matrix(0.38877011,0.15691054,-0.15691054,0.38877011,443.36714,311.93639)">
      <g
         id="#000000ff">
        <path
           id="path3323"
           d="m 1.53,1.65 c 166.01,0 332.03,-0.01 498.05,0.01 -2.49,24.59 -4.22,49.25 -6.71,73.85 -1.73,18.44 -3.41,36.88 -4.92,55.34 -0.08,-1.56 -0.13,-3.12 -0.21,-4.68 l -0.67,0.02 c 0.15,2.59 0.67,5.17 0.5,7.78 -4.24,44.73 -8.18,89.49 -12.46,134.21 -5.36,45.73 -16.33,91.36 -37.59,132.44 -15.18,29.49 -35.91,56.35 -61.9,77.09 -31.12,24.9 -69.72,40.61 -109.55,43.46 -22.84,1.34 -46.03,-0.04 -68.17,-6.08 -19,-4.87 -37.19,-12.74 -53.94,-22.91 C 119,476.94 97.61,456.15 80.71,432.34 56.06,397.63 40.91,357.02 31.96,315.62 28.17,296.9 25.12,278 23.57,258.96 c -2.39,-30.03 -5.45,-60 -7.47,-90.06 -0.21,1.4 -0.41,2.79 -0.61,4.18 0.19,-2.69 0.3,-5.39 0.11,-8.08 C 10.73,110.57 6.13,56.11 1.53,1.65 m 11.04,10.86 c 1.62,18.82 2.97,37.66 4.33,56.5 4.76,59.33 9.65,118.66 14.51,177.98 3.75,53.96 15.23,108.41 41.55,156.13 14.73,26.64 34.24,50.86 58.3,69.64 22.49,17.64 48.85,30.37 76.75,36.67 19.63,4.75 39.98,5.02 60.04,3.95 38.94,-3.51 76.32,-19.96 106.04,-45.21 27.49,-23.25 48.45,-53.54 62.93,-86.35 18.52,-41.52 27.28,-86.74 30.94,-131.86 3.11,-37.65 6.75,-75.26 9.79,-112.91 C 481.69,95.56 484.73,54 488.51,12.5 329.86,12.47 171.22,12.45 12.57,12.51 z"
           inkscape:connector-curvature="0"
           style="fill:#000000" />
        <path
           id="path3325"
           d="m 209.33,63.3 c 2.7,-3.36 3.95,-7.58 5.94,-11.35 -0.83,6.56 -1.44,13.18 -3.01,19.61 -0.53,2.3 -2.01,4.14 -4.41,4.62 6.46,3.98 12.89,8.36 17.31,14.67 9.67,11.27 13.55,26.48 13.26,41.1 -0.63,14.13 -4.99,27.68 -8.73,41.2 -1.14,2.81 0.84,5.29 2.08,7.63 0.34,-0.06 1.01,-0.17 1.34,-0.23 4.42,-15.88 9.12,-31.93 9.52,-48.53 0.27,-8.53 0,-17.34 -3.51,-25.27 -5.01,-11.84 -12.53,-23.24 -23.6,-30.19 0.83,-4.79 1.74,-9.56 2.89,-14.29 5.62,0.86 11.27,1.39 16.96,1.44 -2.64,1.47 -5.38,2.76 -7.91,4.41 5.08,0.49 10.43,-0.89 15.31,1.1 2.91,1.07 6,1.37 9.07,1.61 -3.92,4.52 -10.38,4.34 -15.12,7.53 8.07,0.96 16.3,-0.77 24.32,0.94 5.52,0.72 10.56,3.59 16.21,3.69 -1.32,3.37 -5.35,2.94 -8.32,3.2 -4.4,-0.38 -7.72,3.08 -11.81,4 -2.46,0.36 -4.94,0.48 -7.4,0.83 2.26,2.15 5.5,1.45 8.33,1.69 3.29,0.1 6.44,1.19 9.53,2.23 -2.4,2.23 -5.8,2.68 -8.73,3.9 -0.38,0.52 -1.13,1.55 -1.51,2.07 2.86,0.7 5.68,1.81 8.67,1.71 3.75,0.19 7.42,-1.57 11.16,-0.68 3.94,0.88 7.54,3.06 11.69,2.97 -0.11,0.77 -0.21,1.54 -0.31,2.32 -4.29,1.81 -8.95,1.75 -13.46,2.36 -3.86,2.23 -8.17,3.29 -12.47,4.3 0.78,0.3 2.32,0.92 3.1,1.23 -0.9,1 -1.79,2 -2.69,3 2.54,1.5 5.04,3.23 7.95,3.93 4.25,0.76 8.54,-0.45 12.79,-0.16 3.55,1.1 6.82,2.96 10.35,4.14 -3.6,2.44 -8.01,2.34 -12.18,2.21 -4.5,-0.34 -8.45,2.42 -12.89,2.58 -2.99,0.12 -5.98,-0.05 -8.96,0.11 2.11,1.46 4.36,2.79 6.88,3.43 4.53,1.53 9.48,0.38 13.99,2.02 2.86,1.03 5.58,2.38 8.41,3.49 -3.64,3.68 -8.92,1.19 -13.34,0.91 -3.06,0.74 -5.74,2.89 -8.99,2.78 -3.18,-0.13 -6.37,-0.54 -9.55,-0.2 3.05,3.53 8.31,2.91 11.86,5.71 -2.08,0.31 -4.17,0.52 -6.25,0.8 -2.26,0.83 -4.69,0.91 -7.07,1.12 1.2,1.21 2.41,2.4 3.65,3.57 1.13,0.07 2.26,0.15 3.4,0.23 5.76,1.02 11.71,2.75 16.32,6.46 -6.8,0.76 -13.79,-0.21 -20.38,2.1 -2.22,-0.63 -4.43,-1.26 -6.62,-1.95 -0.04,0.47 -0.14,1.39 -0.19,1.85 2.93,2.08 6.31,3.37 9.9,3.75 3.43,0.37 6.01,2.92 8.22,5.35 -4.46,0.1 -8.92,-0.49 -13.36,0.2 -4.05,0.81 -7.76,-1.23 -11.52,-2.36 0.06,0.49 0.16,1.47 0.22,1.96 3.49,1.53 7.1,2.88 10.36,4.9 -4.34,1.79 -9.44,2.6 -12.55,6.48 -2.3,2.22 -2.35,5.56 -2.13,8.53 7.16,5.43 13.61,11.96 21.78,15.94 12.74,6.49 26.45,11 40.35,14.24 4.35,1.17 9.27,0.65 13.11,3.32 4.18,2.73 8.59,5.19 12.18,8.72 5.22,4.59 10.33,9.94 17.22,11.93 4.61,0.51 9.92,0.57 13.62,-2.7 3.92,-2.83 3.55,-8.18 4.06,-12.46 0.99,-7.38 -2.57,-14.16 -4.91,-20.92 -2.82,-7.97 -6.09,-16.51 -3.97,-25.05 1.38,-4.91 5.99,-7.55 9.35,-10.96 2.14,-2.06 3.07,-5.6 1.31,-8.19 -2.52,-3.67 -6,-6.54 -9.59,-9.12 3.96,1.89 8.14,3.87 10.87,7.46 1.82,2.44 4.84,4.42 4.99,7.73 0.41,3.74 -2.25,6.77 -3.49,10.1 5.68,-5.35 7.4,-14.44 14.89,-17.92 7.31,-2.71 15.57,-1.81 22.86,0.56 5.58,1.78 11.1,3.74 16.7,5.48 1.54,0.46 3.2,0.64 4.78,0.27 2.44,-1.74 0.3,-4.54 -0.81,-6.39 0.29,-1.56 0.63,-3.11 0.96,-4.65 3.11,-1.42 6.39,-0.5 9.49,0.4 0.13,-5.57 -4.93,-8.89 -8.86,-11.89 0.03,-0.19 0.07,-0.57 0.1,-0.76 5.25,2.62 10.16,6.17 13.84,10.78 1.57,1.75 1.57,4.12 1.33,6.33 -3.24,2.36 -6.95,0.57 -10.45,0 1.84,3.87 4.77,7.42 4.75,11.94 -1.56,2.02 -3.21,4.32 -5.84,4.96 -5.14,0.64 -10.35,0.15 -15.35,-1.1 -4.42,-1.11 -9.51,-1.24 -13.12,1.97 3.85,0.49 7.61,1.52 11.09,3.24 4.55,2.7 10.63,-0.46 14.77,3.26 2.45,2.34 5.49,3.8 8.78,4.56 -2.08,3.42 -6.53,3.81 -9.89,2.18 -3.26,-1.69 -6.36,0.61 -9.24,1.99 -0.73,-0.06 -2.19,-0.19 -2.92,-0.25 -1.84,-0.49 -3.75,-0.66 -5.63,-0.74 2.46,1.75 5.11,3.23 7.57,5.01 2.38,0.3 5.06,-0.07 7.08,1.49 2.15,1.51 4.24,3.15 6.73,4.07 -0.11,0.29 -0.34,0.88 -0.45,1.17 -0.6,0.36 -1.78,1.07 -2.38,1.43 -2.32,-0.65 -4.61,-2.02 -7.08,-1.73 -3.18,1.25 -6.12,3.03 -9.31,4.29 5.21,0.07 10.7,1.87 13.8,6.3 -1.12,0.64 -2.24,1.29 -3.35,1.95 -1.34,-0.03 -2.67,-0.05 -4,-0.06 -1.78,1.26 -3.72,2.29 -5.74,3.09 -1.74,-0.36 -3.49,-0.61 -5.25,-0.81 -3.25,3.06 -7.74,4.09 -12.1,3.7 -5.5,-0.63 -10.47,2.52 -14.07,6.38 3.97,-0.67 8.03,-2.25 12.04,-0.84 3.83,1.41 7.93,0.09 11.83,0.81 2.88,1.62 5.54,3.62 8.25,5.51 -1.29,0.72 -2.57,1.45 -3.87,2.14 -5.11,-2.37 -9.42,2.18 -14.44,2.42 3.15,2.57 6.05,5.79 10.3,6.41 0.38,0.44 1.13,1.32 1.51,1.76 -2.59,1.06 -4.83,2.92 -7.54,3.68 -3.03,-1.63 -6.31,-2.64 -9.79,-2.17 0.02,0.4 0.07,1.22 0.09,1.62 3.43,2.86 8.87,3.6 10.65,8.06 -2.69,0.32 -5.33,0.89 -7.97,1.48 -4.76,-1.03 -9.82,-0.54 -14.01,-3.45 2.29,3.34 4.46,6.77 7.12,9.84 1.93,1.78 1.33,4.56 1.52,6.9 -1.11,-0.74 -2.21,-1.47 -3.3,-2.21 -2.22,-0.06 -4.43,-0.11 -6.65,-0.19 -1.26,-1.46 -2.51,-2.93 -3.76,-4.39 -0.19,2 -0.35,4.01 -0.56,6.02 -1.87,2.6 -3.49,5.36 -5.1,8.13 1.01,-3.38 3.04,-7.53 0.35,-10.68 -2.61,-2.29 -6.25,-2.89 -9.05,-4.92 -2.1,-1.44 -3.33,-3.75 -4.68,-5.84 -0.91,0 -2.71,0.01 -3.62,0.01 0.45,4.46 2.01,8.87 1.03,13.39 -2.45,13.1 -10.23,24.18 -16.8,35.49 -0.58,1.31 -2.1,3.09 -0.71,4.4 5.77,6.1 8.98,14.33 15.69,19.58 1.79,1.8 4.81,3.4 4.32,6.38 0.55,9.15 -7.85,14.67 -11.75,21.98 -2.41,4.71 -4.56,9.56 -6.42,14.52 -1.31,2.57 1.5,4.32 2.74,6.2 1.68,1.81 1.73,4.38 2.02,6.69 -3.76,0.69 -7.73,0.84 -11.21,2.57 -3.26,1.57 -5.15,4.79 -7.27,7.55 -3.45,-0.06 -6.89,-0.08 -10.34,-0.02 -0.51,1 -1.01,2.02 -1.5,3.05 4.06,0.61 8.13,1.15 12.14,2.04 -1.66,4.28 -4.28,8.99 -9.12,10.14 -7.37,1.46 -15.11,0.85 -22.25,-1.48 2.21,-5.15 6.91,-9.88 5.48,-15.93 5.12,-1.65 10.75,-3.48 13.86,-8.22 3.72,-5.81 9.45,-10.06 12.72,-16.19 3.76,-6.31 6.83,-13.04 8.78,-20.14 -3.99,-5.08 -8.11,-10.13 -12.73,-14.64 -4.07,-1.94 -8.51,-3.07 -12.38,-5.45 -4.42,-2.72 -8.51,-5.93 -12.96,-8.61 0.46,4.69 1.55,9.29 2.07,13.97 0.23,1.29 -0.4,2.51 -1.16,3.5 -5.01,5.8 -13.63,6.57 -18.43,12.6 -3.5,4.03 -6.61,8.38 -9.69,12.74 2.21,2.74 3.39,6.08 3.15,9.62 -4.1,0.92 -8.31,1.48 -12.22,3.05 -2.42,0.98 -3.83,3.41 -6.12,4.6 -3.04,0.62 -6.18,-0.12 -9.24,0.35 -0.18,0.72 -0.53,2.14 -0.7,2.85 3.46,0.67 6.93,1.26 10.43,1.66 -1.23,4.1 -3.6,8.24 -7.78,9.86 -6.86,1.74 -14.21,2.04 -20.97,-0.39 1.02,-5.73 5.88,-10.49 4.6,-16.61 2.98,-0.57 6.06,-1.12 8.75,-2.62 2.32,-1.65 3.71,-4.23 5.56,-6.34 3.54,-4.56 9.17,-6.79 12.85,-11.22 4.82,-5.61 8.61,-12 13.03,-17.92 2.96,-6.48 1.62,-13.95 1.46,-20.84 -4.66,-8.05 -13.28,-13.03 -17.9,-21.16 -2.63,-4.8 -4.63,-9.93 -6.26,-15.15 7.96,1.71 16.09,2.23 24.17,3.17 1.07,5.71 3.15,11.18 6.05,16.21 0.45,1.12 1.54,1.64 2.55,2.17 -0.22,-2.78 -1.09,-5.44 -2,-8.05 -0.43,-5.1 -1.16,-10.16 -1.51,-15.26 -0.56,-0.25 -1.67,-0.75 -2.23,-0.99 -14.86,-1.64 -29.83,-3.33 -44.23,-7.51 -6.32,-2.61 -13.15,-3.66 -19.4,-6.45 -12.52,-5.62 -24.4,-12.53 -35.92,-19.98 0.58,-6.82 1.61,-13.64 0.87,-20.5 -0.4,-0.01 -1.2,-0.04 -1.6,-0.05 -0.01,7.22 -1.57,14.71 -6.64,20.14 -10.84,-0.15 -20.43,-6.3 -29.23,-12.05 -6.9,-4.26 -14,-9.66 -22.55,-9.19 0.06,6.49 0.02,13.02 1.2,19.42 4.41,-0.66 8.86,-0.36 13.26,0.25 -0.16,4.9 -2.83,10.48 0.87,14.74 0.84,0.05 2.52,0.13 3.36,0.18 -1.29,3.96 -3.29,7.69 -3.93,11.86 0.68,-0.01 2.04,-0.02 2.72,-0.03 1.59,-3.68 3.5,-7.21 5.26,-10.81 2.66,2.01 5.04,4.74 5.34,8.2 0.53,5.79 -1.8,11.37 -4.11,16.56 -1.01,1.6 -1.86,4.28 -4.23,3.88 -2.49,-2.75 -5.03,-5.45 -7.72,-7.99 -0.48,-0.03 -1.44,-0.09 -1.92,-0.12 -0.7,0.83 -1.39,1.66 -2.09,2.49 0.27,-4.6 0.11,-9.48 -2.17,-13.6 -3.2,-3.24 -7.57,-4.83 -11.53,-6.91 -1.02,-1.42 -2.07,-2.81 -3.14,-4.19 -2.37,-12.62 -0.49,-25.94 -5.41,-38.06 -1.96,-4.1 0.86,-8.07 2.5,-11.71 1.03,-2.03 2.85,-4.41 5.42,-3.94 5.41,0.62 9.74,4.44 15.02,5.52 5.16,1.21 10.34,2.91 15.71,2.42 -0.18,-4.53 -1.54,-8.9 -2.08,-13.38 -0.4,-3.2 0.39,-6.44 -0.28,-9.61 -3.86,5.39 -2.88,12.09 -2.6,18.29 -3.89,-1.57 -8.11,-2.42 -11.71,-4.64 -2.49,-1.83 -2.63,-5.23 -3.37,-7.98 -1.78,-9.81 -8.02,-17.96 -14.64,-25.09 -2.83,1.42 -4.84,3.9 -7.07,6.07 -3.63,3.63 -7.98,6.58 -10.88,10.9 3.79,2.12 5.95,5.93 6.72,10.1 -4.03,2.35 -7.95,5.62 -8.5,10.58 -2.72,1.37 -7.74,0.73 -7.97,4.61 3.52,0.14 7.05,0.22 10.58,0.3 -0.42,3.69 -0.22,8.28 -3.73,10.6 -5.86,3.56 -12.99,4.72 -19.76,4.13 -0.24,-4.16 1.25,-8.22 0.95,-12.36 -1.35,-2.32 -4.39,-1.49 -6.65,-1.92 2.84,-1.01 6.3,-1.48 8.17,-4.12 2.03,-2.79 4.19,-6.16 3.37,-9.77 -0.42,-2.35 -1.01,-4.67 -1.53,-6.99 1.06,-3.42 1.46,-7.52 4.65,-9.74 7.17,-5.45 12.75,-12.56 18.87,-19.09 2.76,-3.13 3.8,-7.38 6.48,-10.56 3.61,-2.61 8.46,-1.84 12.54,-3.25 3.67,2.48 4.78,6.84 6.53,10.63 3.94,5.64 8.22,11.3 14.01,15.16 2.67,1.87 5.24,3.89 7.96,5.69 2.09,-7.47 8.11,-12.63 13.13,-18.15 5.85,-8.76 10.59,-18.3 17.49,-26.34 3.63,-4.63 7.85,-8.78 12.19,-12.74 2.82,-1.59 6.3,-1.44 9.2,-2.96 5.76,-2.26 10.4,-6.89 13,-12.47 -3.13,0.7 -4.52,3.96 -7.02,5.66 -4.85,3.76 -11.78,6.37 -17.69,3.57 -1.93,-1.07 -3.47,-2.71 -5.13,-4.14 -4.68,0.76 -9.68,1.11 -13.68,3.93 -4.01,2.22 -7.4,6.34 -12.35,6.16 -4.38,0.12 -7.47,-3.59 -10.62,-6.12 4.61,-2.01 9.1,-4.26 13.67,-6.35 -0.12,-0.54 -0.36,-1.61 -0.48,-2.14 -6.11,-0.67 -12.33,-0.02 -18.34,-1.5 0.4,-3.48 -0.18,-6.94 -0.31,-10.41 0.91,-3.81 3.49,-7.49 7.36,-8.71 3.48,-1.1 7.22,-1.61 10.32,-3.68 6.25,-3.88 12.71,-7.4 19.36,-10.55 6.74,-3.11 13.24,-6.79 20.3,-9.15 0.86,-3.09 1.32,-7.23 4.9,-8.35 4.09,-0.7 8.24,0.26 12.19,1.31 -2.68,1.51 -5.58,2.65 -8.15,4.34 -1.71,1.68 -1.69,4.29 -2.06,6.5 0.47,-0.07 1.39,-0.21 1.86,-0.28 1.76,-5.49 8.01,-6.9 11.39,-11.06 m -39.67,22.63 c 2.74,0.59 4.69,2.57 6.41,4.64 1.76,0.01 3.53,-0.04 5.3,-0.13 0.13,-1.84 0.23,-3.68 0.27,-5.53 -0.94,-0.6 -1.88,-1.21 -2.82,-1.82 -3.1,0.81 -6.16,1.73 -9.16,2.84 M 140.03,98.8 c -0.16,0.27 -0.48,0.81 -0.64,1.08 3.77,0.34 3.5,4.26 1.87,6.69 1.96,-0.46 4.55,-0.71 5.14,-3.04 0.68,-2.23 -1.45,-3.6 -2.77,-4.99 -1.2,0.08 -2.4,0.17 -3.6,0.26 z"
           inkscape:connector-curvature="0"
           style="fill:#000000" />
      </g>
      <g
         id="#ffcc00ff">
        <path
           id="path3328"
           d="m 12.57,12.51 c 158.65,-0.06 317.29,-0.04 475.94,-0.01 -3.78,41.5 -6.82,83.06 -10.76,124.55 -3.04,37.65 -6.68,75.26 -9.79,112.91 -3.66,45.12 -12.42,90.34 -30.94,131.86 -14.48,32.81 -35.44,63.1 -62.93,86.35 -29.72,25.25 -67.1,41.7 -106.04,45.21 -20.06,1.07 -40.41,0.8 -60.04,-3.95 -27.9,-6.3 -54.26,-19.03 -76.75,-36.67 -24.06,-18.78 -43.57,-43 -58.3,-69.64 C 46.64,355.4 35.16,300.95 31.41,246.99 26.55,187.67 21.66,128.34 16.9,69.01 15.54,50.17 14.19,31.33 12.57,12.51 M 209.33,63.3 c -3.38,4.16 -9.63,5.57 -11.39,11.06 -0.47,0.07 -1.39,0.21 -1.86,0.28 0.37,-2.21 0.35,-4.82 2.06,-6.5 2.57,-1.69 5.47,-2.83 8.15,-4.34 -3.95,-1.05 -8.1,-2.01 -12.19,-1.31 -3.58,1.12 -4.04,5.26 -4.9,8.35 -7.06,2.36 -13.56,6.04 -20.3,9.15 -6.65,3.15 -13.11,6.67 -19.36,10.55 -3.1,2.07 -6.84,2.58 -10.32,3.68 -3.87,1.22 -6.45,4.9 -7.36,8.71 0.13,3.47 0.71,6.93 0.31,10.41 6.01,1.48 12.23,0.83 18.34,1.5 0.12,0.53 0.36,1.6 0.48,2.14 -4.57,2.09 -9.06,4.34 -13.67,6.35 3.15,2.53 6.24,6.24 10.62,6.12 4.95,0.18 8.34,-3.94 12.35,-6.16 4,-2.82 9,-3.17 13.68,-3.93 1.66,1.43 3.2,3.07 5.13,4.14 5.91,2.8 12.84,0.19 17.69,-3.57 2.5,-1.7 3.89,-4.96 7.02,-5.66 -2.6,5.58 -7.24,10.21 -13,12.47 -2.9,1.52 -6.38,1.37 -9.2,2.96 -4.34,3.96 -8.56,8.11 -12.19,12.74 -6.9,8.04 -11.64,17.58 -17.49,26.34 -5.02,5.52 -11.04,10.68 -13.13,18.15 -2.72,-1.8 -5.29,-3.82 -7.96,-5.69 -5.79,-3.86 -10.07,-9.52 -14.01,-15.16 -1.75,-3.79 -2.86,-8.15 -6.53,-10.63 -4.08,1.41 -8.93,0.64 -12.54,3.25 -2.68,3.18 -3.72,7.43 -6.48,10.56 -6.12,6.53 -11.7,13.64 -18.87,19.09 -3.19,2.22 -3.59,6.32 -4.65,9.74 0.52,2.32 1.11,4.64 1.53,6.99 0.82,3.61 -1.34,6.98 -3.37,9.77 -1.87,2.64 -5.33,3.11 -8.17,4.12 2.26,0.43 5.3,-0.4 6.65,1.92 0.3,4.14 -1.19,8.2 -0.95,12.36 6.77,0.59 13.9,-0.57 19.76,-4.13 3.51,-2.32 3.31,-6.91 3.73,-10.6 -3.53,-0.08 -7.06,-0.16 -10.58,-0.3 0.23,-3.88 5.25,-3.24 7.97,-4.61 0.55,-4.96 4.47,-8.23 8.5,-10.58 -0.77,-4.17 -2.93,-7.98 -6.72,-10.1 2.9,-4.32 7.25,-7.27 10.88,-10.9 2.23,-2.17 4.24,-4.65 7.07,-6.07 6.62,7.13 12.86,15.28 14.64,25.09 0.74,2.75 0.88,6.15 3.37,7.98 3.6,2.22 7.82,3.07 11.71,4.64 -0.28,-6.2 -1.26,-12.9 2.6,-18.29 0.67,3.17 -0.12,6.41 0.28,9.61 0.54,4.48 1.9,8.85 2.08,13.38 -5.37,0.49 -10.55,-1.21 -15.71,-2.42 -5.28,-1.08 -9.61,-4.9 -15.02,-5.52 -2.57,-0.47 -4.39,1.91 -5.42,3.94 -1.64,3.64 -4.46,7.61 -2.5,11.71 4.92,12.12 3.04,25.44 5.41,38.06 1.07,1.38 2.12,2.77 3.14,4.19 3.96,2.08 8.33,3.67 11.53,6.91 2.28,4.12 2.44,9 2.17,13.6 0.7,-0.83 1.39,-1.66 2.09,-2.49 0.48,0.03 1.44,0.09 1.92,0.12 2.69,2.54 5.23,5.24 7.72,7.99 2.37,0.4 3.22,-2.28 4.23,-3.88 2.31,-5.19 4.64,-10.77 4.11,-16.56 -0.3,-3.46 -2.68,-6.19 -5.34,-8.2 -1.76,3.6 -3.67,7.13 -5.26,10.81 -0.68,0.01 -2.04,0.02 -2.72,0.03 0.64,-4.17 2.64,-7.9 3.93,-11.86 -0.84,-0.05 -2.52,-0.13 -3.36,-0.18 -3.7,-4.26 -1.03,-9.84 -0.87,-14.74 -4.4,-0.61 -8.85,-0.91 -13.26,-0.25 -1.18,-6.4 -1.14,-12.93 -1.2,-19.42 8.55,-0.47 15.65,4.93 22.55,9.19 8.8,5.75 18.39,11.9 29.23,12.05 5.07,-5.43 6.63,-12.92 6.64,-20.14 0.4,0.01 1.2,0.04 1.6,0.05 0.74,6.86 -0.29,13.68 -0.87,20.5 11.52,7.45 23.4,14.36 35.92,19.98 6.25,2.79 13.08,3.84 19.4,6.45 14.4,4.18 29.37,5.87 44.23,7.51 0.56,0.24 1.67,0.74 2.23,0.99 0.35,5.1 1.08,10.16 1.51,15.26 0.91,2.61 1.78,5.27 2,8.05 -1.01,-0.53 -2.1,-1.05 -2.55,-2.17 -2.9,-5.03 -4.98,-10.5 -6.05,-16.21 -8.08,-0.94 -16.21,-1.46 -24.17,-3.17 1.63,5.22 3.63,10.35 6.26,15.15 4.62,8.13 13.24,13.11 17.9,21.16 0.16,6.89 1.5,14.36 -1.46,20.84 -4.42,5.92 -8.21,12.31 -13.03,17.92 -3.68,4.43 -9.31,6.66 -12.85,11.22 -1.85,2.11 -3.24,4.69 -5.56,6.34 -2.69,1.5 -5.77,2.05 -8.75,2.62 1.28,6.12 -3.58,10.88 -4.6,16.61 6.76,2.43 14.11,2.13 20.97,0.39 4.18,-1.62 6.55,-5.76 7.78,-9.86 -3.5,-0.4 -6.97,-0.99 -10.43,-1.66 0.17,-0.71 0.52,-2.13 0.7,-2.85 3.06,-0.47 6.2,0.27 9.24,-0.35 2.29,-1.19 3.7,-3.62 6.12,-4.6 3.91,-1.57 8.12,-2.13 12.22,-3.05 0.24,-3.54 -0.94,-6.88 -3.15,-9.62 3.08,-4.36 6.19,-8.71 9.69,-12.74 4.8,-6.03 13.42,-6.8 18.43,-12.6 0.76,-0.99 1.39,-2.21 1.16,-3.5 -0.52,-4.68 -1.61,-9.28 -2.07,-13.97 4.45,2.68 8.54,5.89 12.96,8.61 3.87,2.38 8.31,3.51 12.38,5.45 4.62,4.51 8.74,9.56 12.73,14.64 -1.95,7.1 -5.02,13.83 -8.78,20.14 -3.27,6.13 -9,10.38 -12.72,16.19 -3.11,4.74 -8.74,6.57 -13.86,8.22 1.43,6.05 -3.27,10.78 -5.48,15.93 7.14,2.33 14.88,2.94 22.25,1.48 4.84,-1.15 7.46,-5.86 9.12,-10.14 -4.01,-0.89 -8.08,-1.43 -12.14,-2.04 0.49,-1.03 0.99,-2.05 1.5,-3.05 3.45,-0.06 6.89,-0.04 10.34,0.02 2.12,-2.76 4.01,-5.98 7.27,-7.55 3.48,-1.73 7.45,-1.88 11.21,-2.57 -0.29,-2.31 -0.34,-4.88 -2.02,-6.69 -1.24,-1.88 -4.05,-3.63 -2.74,-6.2 1.86,-4.96 4.01,-9.81 6.42,-14.52 3.9,-7.31 12.3,-12.83 11.75,-21.98 0.49,-2.98 -2.53,-4.58 -4.32,-6.38 -6.71,-5.25 -9.92,-13.48 -15.69,-19.58 -1.39,-1.31 0.13,-3.09 0.71,-4.4 6.57,-11.31 14.35,-22.39 16.8,-35.49 0.98,-4.52 -0.58,-8.93 -1.03,-13.39 0.91,0 2.71,-0.01 3.62,-0.01 1.35,2.09 2.58,4.4 4.68,5.84 2.8,2.03 6.44,2.63 9.05,4.92 2.69,3.15 0.66,7.3 -0.35,10.68 1.61,-2.77 3.23,-5.53 5.1,-8.13 0.21,-2.01 0.37,-4.02 0.56,-6.02 1.25,1.46 2.5,2.93 3.76,4.39 2.22,0.08 4.43,0.13 6.65,0.19 1.09,0.74 2.19,1.47 3.3,2.21 -0.19,-2.34 0.41,-5.12 -1.52,-6.9 -2.66,-3.07 -4.83,-6.5 -7.12,-9.84 4.19,2.91 9.25,2.42 14.01,3.45 2.64,-0.59 5.28,-1.16 7.97,-1.48 -1.78,-4.46 -7.22,-5.2 -10.65,-8.06 -0.02,-0.4 -0.07,-1.22 -0.09,-1.62 3.48,-0.47 6.76,0.54 9.79,2.17 2.71,-0.76 4.95,-2.62 7.54,-3.68 -0.38,-0.44 -1.13,-1.32 -1.51,-1.76 -4.25,-0.62 -7.15,-3.84 -10.3,-6.41 5.02,-0.24 9.33,-4.79 14.44,-2.42 1.3,-0.69 2.58,-1.42 3.87,-2.14 -2.71,-1.89 -5.37,-3.89 -8.25,-5.51 -3.9,-0.72 -8,0.6 -11.83,-0.81 -4.01,-1.41 -8.07,0.17 -12.04,0.84 3.6,-3.86 8.57,-7.01 14.07,-6.38 4.36,0.39 8.85,-0.64 12.1,-3.7 1.76,0.2 3.51,0.45 5.25,0.81 2.02,-0.8 3.96,-1.83 5.74,-3.09 1.33,0.01 2.66,0.03 4,0.06 1.11,-0.66 2.23,-1.31 3.35,-1.95 -3.1,-4.43 -8.59,-6.23 -13.8,-6.3 3.19,-1.26 6.13,-3.04 9.31,-4.29 2.47,-0.29 4.76,1.08 7.08,1.73 0.6,-0.36 1.78,-1.07 2.38,-1.43 0.11,-0.29 0.34,-0.88 0.45,-1.17 -2.49,-0.92 -4.58,-2.56 -6.73,-4.07 -2.02,-1.56 -4.7,-1.19 -7.08,-1.49 -2.46,-1.78 -5.11,-3.26 -7.57,-5.01 1.88,0.08 3.79,0.25 5.63,0.74 0.73,0.06 2.19,0.19 2.92,0.25 2.88,-1.38 5.98,-3.68 9.24,-1.99 3.36,1.63 7.81,1.24 9.89,-2.18 -3.29,-0.76 -6.33,-2.22 -8.78,-4.56 -4.14,-3.72 -10.22,-0.56 -14.77,-3.26 -3.48,-1.72 -7.24,-2.75 -11.09,-3.24 3.61,-3.21 8.7,-3.08 13.12,-1.97 5,1.25 10.21,1.74 15.35,1.1 2.63,-0.64 4.28,-2.94 5.84,-4.96 0.02,-4.52 -2.91,-8.07 -4.75,-11.94 3.5,0.57 7.21,2.36 10.45,0 0.24,-2.21 0.24,-4.58 -1.33,-6.33 -3.68,-4.61 -8.59,-8.16 -13.84,-10.78 -0.03,0.19 -0.07,0.57 -0.1,0.76 3.93,3 8.99,6.32 8.86,11.89 -3.1,-0.9 -6.38,-1.82 -9.49,-0.4 -0.33,1.54 -0.67,3.09 -0.96,4.65 1.11,1.85 3.25,4.65 0.81,6.39 -1.58,0.37 -3.24,0.19 -4.78,-0.27 -5.6,-1.74 -11.12,-3.7 -16.7,-5.48 -7.29,-2.37 -15.55,-3.27 -22.86,-0.56 -7.49,3.48 -9.21,12.57 -14.89,17.92 1.24,-3.33 3.9,-6.36 3.49,-10.1 -0.15,-3.31 -3.17,-5.29 -4.99,-7.73 -2.73,-3.59 -6.91,-5.57 -10.87,-7.46 3.59,2.58 7.07,5.45 9.59,9.12 1.76,2.59 0.83,6.13 -1.31,8.19 -3.36,3.41 -7.97,6.05 -9.35,10.96 -2.12,8.54 1.15,17.08 3.97,25.05 2.34,6.76 5.9,13.54 4.91,20.92 -0.51,4.28 -0.14,9.63 -4.06,12.46 -3.7,3.27 -9.01,3.21 -13.62,2.7 -6.89,-1.99 -12,-7.34 -17.22,-11.93 -3.59,-3.53 -8,-5.99 -12.18,-8.72 -3.84,-2.67 -8.76,-2.15 -13.11,-3.32 -13.9,-3.24 -27.61,-7.75 -40.35,-14.24 -8.17,-3.98 -14.62,-10.51 -21.78,-15.94 -0.22,-2.97 -0.17,-6.31 2.13,-8.53 3.11,-3.88 8.21,-4.69 12.55,-6.48 -3.26,-2.02 -6.87,-3.37 -10.36,-4.9 -0.06,-0.49 -0.16,-1.47 -0.22,-1.96 3.76,1.13 7.47,3.17 11.52,2.36 4.44,-0.69 8.9,-0.1 13.36,-0.2 -2.21,-2.43 -4.79,-4.98 -8.22,-5.35 -3.59,-0.38 -6.97,-1.67 -9.9,-3.75 0.05,-0.46 0.15,-1.38 0.19,-1.85 2.19,0.69 4.4,1.32 6.62,1.95 6.59,-2.31 13.58,-1.34 20.38,-2.1 -4.61,-3.71 -10.56,-5.44 -16.32,-6.46 -1.14,-0.08 -2.27,-0.16 -3.4,-0.23 -1.24,-1.17 -2.45,-2.36 -3.65,-3.57 2.38,-0.21 4.81,-0.29 7.07,-1.12 2.08,-0.28 4.17,-0.49 6.25,-0.8 -3.55,-2.8 -8.81,-2.18 -11.86,-5.71 3.18,-0.34 6.37,0.07 9.55,0.2 3.25,0.11 5.93,-2.04 8.99,-2.78 4.42,0.28 9.7,2.77 13.34,-0.91 -2.83,-1.11 -5.55,-2.46 -8.41,-3.49 -4.51,-1.64 -9.46,-0.49 -13.99,-2.02 -2.52,-0.64 -4.77,-1.97 -6.88,-3.43 2.98,-0.16 5.97,0.01 8.96,-0.11 4.44,-0.16 8.39,-2.92 12.89,-2.58 4.17,0.13 8.58,0.23 12.18,-2.21 -3.53,-1.18 -6.8,-3.04 -10.35,-4.14 -4.25,-0.29 -8.54,0.92 -12.79,0.16 -2.91,-0.7 -5.41,-2.43 -7.95,-3.93 0.9,-1 1.79,-2 2.69,-3 -0.78,-0.31 -2.32,-0.93 -3.1,-1.23 4.3,-1.01 8.61,-2.07 12.47,-4.3 4.51,-0.61 9.17,-0.55 13.46,-2.36 0.1,-0.78 0.2,-1.55 0.31,-2.32 -4.15,0.09 -7.75,-2.09 -11.69,-2.97 -3.74,-0.89 -7.41,0.87 -11.16,0.68 -2.99,0.1 -5.81,-1.01 -8.67,-1.71 0.38,-0.52 1.13,-1.55 1.51,-2.07 2.93,-1.22 6.33,-1.67 8.73,-3.9 -3.09,-1.04 -6.24,-2.13 -9.53,-2.23 -2.83,-0.24 -6.07,0.46 -8.33,-1.69 2.46,-0.35 4.94,-0.47 7.4,-0.83 4.09,-0.92 7.41,-4.38 11.81,-4 2.97,-0.26 7,0.17 8.32,-3.2 -5.65,-0.1 -10.69,-2.97 -16.21,-3.69 -8.02,-1.71 -16.25,0.02 -24.32,-0.94 4.74,-3.19 11.2,-3.01 15.12,-7.53 -3.07,-0.24 -6.16,-0.54 -9.07,-1.61 -4.88,-1.99 -10.23,-0.61 -15.31,-1.1 2.53,-1.65 5.27,-2.94 7.91,-4.41 -5.69,-0.05 -11.34,-0.58 -16.96,-1.44 -1.15,4.73 -2.06,9.5 -2.89,14.29 11.07,6.95 18.59,18.35 23.6,30.19 3.51,7.93 3.78,16.74 3.51,25.27 -0.4,16.6 -5.1,32.65 -9.52,48.53 -0.33,0.06 -1,0.17 -1.34,0.23 -1.24,-2.34 -3.22,-4.82 -2.08,-7.63 3.74,-13.52 8.1,-27.07 8.73,-41.2 0.29,-14.62 -3.59,-29.83 -13.26,-41.1 -4.42,-6.31 -10.85,-10.69 -17.31,-14.67 2.4,-0.48 3.88,-2.32 4.41,-4.62 1.57,-6.43 2.18,-13.05 3.01,-19.61 -1.99,3.77 -3.24,7.99 -5.94,11.35 z"
           inkscape:connector-curvature="0"
           style="fill:#ffcc00" />
        <path
           id="path3330"
           d="m 169.66,85.93 c 3,-1.11 6.06,-2.03 9.16,-2.84 0.94,0.61 1.88,1.22 2.82,1.82 -0.04,1.85 -0.14,3.69 -0.27,5.53 -1.77,0.09 -3.54,0.14 -5.3,0.13 -1.72,-2.07 -3.67,-4.05 -6.41,-4.64 z"
           inkscape:connector-curvature="0"
           style="fill:#ffcc00" />
        <path
           id="path3332"
           d="m 140.03,98.8 c 1.2,-0.09 2.4,-0.18 3.6,-0.26 1.32,1.39 3.45,2.76 2.77,4.99 -0.59,2.33 -3.18,2.58 -5.14,3.04 1.63,-2.43 1.9,-6.35 -1.87,-6.69 0.16,-0.27 0.48,-0.81 0.64,-1.08 z"
           inkscape:connector-curvature="0"
           style="fill:#ffcc00" />
      </g>
    </g>
  </g>
  <g
     inkscape:label="gdg logo"
     inkscape:groupmode="layer"
     id="layer1"
     style="display:inline"
     transform="translate(-354.97383,-297.28233)">
    <g
       transform="matrix(2.5729986,0,0,2.5729986,77.958702,-580.6402)"
       id="colorangle">
      <g
         id="g88">
        <radialGradient
           id="radialGradient3380"
           cx="106.8687"
           cy="360.1709"
           r="80.393799"
           gradientUnits="userSpaceOnUse">
          <stop
             offset="0"
             style="stop-color:#FFCE4E"
             id="stop3382" />
          <stop
             offset="1"
             style="stop-color:#F5C337"
             id="stop3384" />
        </radialGradient>
        <path
           inkscape:connector-curvature="0"
           style="fill:url(#SVGID_1_)"
           d="m 133.117,404.787 -15.423,25.619 h 7.789 c 1.844,0 4.134,-1.293 5.085,-2.881 l 6.562,-10.918 c 0.774,-1.602 0.748,-3.93 -0.138,-5.406 l -3.875,-6.414 z"
           id="path95" />
        <radialGradient
           id="radialGradient3387"
           cx="106.8701"
           cy="360.17191"
           r="80.391998"
           gradientUnits="userSpaceOnUse">
          <stop
             offset="0"
             style="stop-color:#0DA960"
             id="stop3389" />
          <stop
             offset="1"
             style="stop-color:#05924B"
             id="stop3391" />
        </radialGradient>
        <path
           inkscape:connector-curvature="0"
           style="fill:url(#SVGID_2_)"
           d="m 126.067,393.117 c 0.951,1.582 0.951,4.174 0,5.762 l -17.322,28.961 c -0.669,1.432 0.026,2.566 1.745,2.566 h 7.204 l 15.423,-25.619 -7.05,-11.67 z"
           id="path102" />
        <radialGradient
           id="radialGradient3394"
           cx="106.8687"
           cy="360.17331"
           r="80.390297"
           gradientUnits="userSpaceOnUse">
          <stop
             offset="0"
             style="stop-color:#577EC0"
             id="stop3396" />
          <stop
             offset="1"
             style="stop-color:#557EBF"
             id="stop3398" />
        </radialGradient>
        <path
           inkscape:connector-curvature="0"
           style="fill:url(#SVGID_3_)"
           d="m 110.49,361.584 c -1.851,0 -2.585,1.299 -1.634,2.881 l 28.136,46.736 c 0.886,1.477 0.912,3.805 0.138,5.406 l 6.84,-11.385 -26.271,-43.639 h -7.209 z"
           id="path109" />
        <radialGradient
           id="radialGradient3401"
           cx="106.8711"
           cy="360.17331"
           r="80.385902"
           gradientUnits="userSpaceOnUse">
          <stop
             offset="0"
             style="stop-color:#E04B3F"
             id="stop3403" />
          <stop
             offset="1"
             style="stop-color:#CD382D"
             id="stop3405" />
        </radialGradient>
        <path
           inkscape:connector-curvature="0"
           style="fill:url(#SVGID_4_)"
           d="m 147.778,393.117 -17.21,-28.652 c -0.951,-1.582 -3.241,-2.881 -5.085,-2.881 h -7.785 l 26.271,43.639 3.809,-6.344 c 0.952,-1.588 0.952,-4.18 0,-5.762 z"
           id="path116" />
        <linearGradient
           id="linearGradient3408"
           gradientUnits="userSpaceOnUse"
           x1="141.16991"
           y1="404.8623"
           x2="121.8034"
           y2="404.8623">
          <stop
             offset="0"
             style="stop-color:#231F20;stop-opacity:0.2"
             id="stop3410" />
          <stop
             offset="1"
             style="stop-color:#F2F2F2;stop-opacity:0.25"
             id="stop3412" />
        </linearGradient>
        <path
           inkscape:connector-curvature="0"
           style="fill:url(#SVGID_5_)"
           d="m 136.992,411.201 -10.925,-18.084 c 0.951,1.582 0.951,4.174 0,5.762 l -3.846,6.404 14.908,11.324 c 0.775,-1.601 0.749,-3.929 -0.137,-5.406 z"
           id="path123" />
      </g>
      <g
         id="g125">
        <radialGradient
           id="radialGradient3416"
           cx="128.46581"
           cy="395.99509"
           r="28.153"
           gradientUnits="userSpaceOnUse">
          <stop
             offset="0"
             style="stop-color:#FFFFFF;stop-opacity:0.1"
             id="stop3418" />
          <stop
             offset="0.0896"
             style="stop-color:#FFFFFF;stop-opacity:0.091"
             id="stop3420" />
          <stop
             offset="1"
             style="stop-color:#FFFFFF;stop-opacity:0"
             id="stop3422" />
        </radialGradient>
        <path
           inkscape:connector-curvature="0"
           style="fill:url(#SVGID_6_)"
           d="m 147.778,393.117 -17.21,-28.652 c -0.951,-1.582 -3.241,-2.881 -5.085,-2.881 h -7.785 -7.208 c -1.851,0 -2.585,1.299 -1.634,2.881 l 17.211,28.652 c 0.951,1.582 0.951,4.174 0,5.762 l -17.322,28.961 c -0.669,1.432 0.026,2.566 1.745,2.566 h 7.204 7.789 c 1.844,0 4.134,-1.293 5.085,-2.881 l 13.401,-22.303 3.809,-6.344 c 0.952,-1.587 0.952,-4.179 0,-5.761 z"
           id="path134" />
      </g>
    </g>
  </g>
  <g
     inkscape:groupmode="layer"
     id="layer3"
     inkscape:label="horse#1"
     style="display:inline"
     transform="translate(-354.97383,-297.28233)">
    <path
       id="path3325-3"
       d="m 514.81594,369.39163 c 1.57691,-0.88262 2.72504,-2.32708 4.09024,-3.4805 -1.35203,2.42011 -2.6279,4.89804 -4.24722,7.1515 -0.56693,0.81101 -1.43102,1.29411 -2.43941,1.10412 1.88696,2.56096 3.69949,5.27272 4.42775,8.41939 1.99101,5.89876 1.11285,12.42077 -1.29394,18.05908 -2.46207,5.39447 -6.28323,9.97817 -9.85867,14.64749 -0.88411,0.91357 -0.50349,2.18841 -0.38858,3.29269 0.14152,0.0301 0.41932,0.0924 0.55703,0.12093 4.2101,-5.48012 8.55574,-10.9824 11.31597,-17.37322 1.4434,-3.27383 2.72082,-6.74125 2.60053,-10.37497 -0.0898,-5.38915 -1.22469,-11.00111 -4.43783,-15.44005 1.07428,-1.73199 2.17653,-3.44362 3.36579,-5.10205 2.04994,1.21618 4.16332,2.30875 6.36758,3.22103 -1.25701,0.15721 -2.52465,0.22874 -3.76715,0.47331 1.89807,0.98759 4.19453,1.29056 5.77947,2.82994 0.96343,0.8726 2.11765,1.47409 3.27352,2.04911 -2.23321,1.14215 -4.71641,0.0587 -7.05974,0.55494 2.98674,1.63949 6.45779,2.25829 9.30741,4.18151 2.03303,1.14606 3.54209,3.05266 5.72297,3.97809 -1.04199,1.10304 -2.54125,0.30351 -3.73669,-0.0615 -1.65097,-0.83813 -3.48459,-0.0129 -5.21902,-0.29803 -1.01286,-0.24598 -1.99585,-0.58852 -3.00714,-0.83844 0.54125,1.19045 1.91071,1.42671 2.97328,1.96408 1.26337,0.55512 2.31696,1.47314 3.35506,2.36232 -1.28295,0.49036 -2.67538,0.13174 -4.0059,0.1464 -0.22926,0.14255 -0.68254,0.42527 -0.91185,0.56781 1.00203,0.7209 1.92419,1.59493 3.10232,2.02521 1.42806,0.66229 3.13103,0.55391 4.44537,1.48675 1.39366,0.96035 2.45119,2.37275 4.07869,2.98895 -0.16364,0.28208 -0.32327,0.56575 -0.48455,0.85329 -1.95182,0.0306 -3.75408,-0.72399 -5.60314,-1.19452 -1.85058,0.26129 -3.69251,-0.003 -5.52268,-0.28496 0.25627,0.23903 0.75759,0.7217 1.01219,0.96462 -0.5068,0.24752 -1.00972,0.49667 -1.51653,0.74421 0.75212,0.98171 1.45256,2.04657 2.47407,2.77532 1.53302,0.96232 3.3907,1.16505 4.99746,1.94467 1.20753,0.98469 2.18697,2.22088 3.37418,3.23354 -1.78245,0.38371 -3.48124,-0.34712 -5.08201,-1.052 -1.69612,-0.83828 -3.66482,-0.38507 -5.41608,-1.01955 -1.18124,-0.42251 -2.31699,-0.95775 -3.50062,-1.36315 0.5912,0.8987 1.25724,1.76881 2.13651,2.41304 1.52106,1.30561 3.62593,1.63524 5.12194,2.98048 0.95026,0.84919 1.79591,1.80084 2.72195,2.67644 -1.99255,0.85951 -3.65455,-0.93701 -5.32899,-1.7394 -1.30574,-0.19246 -2.685,0.22282 -3.93125,-0.32986 -1.2159,-0.54952 -2.39174,-1.20947 -3.68137,-1.57625 0.63185,1.85094 2.77408,2.43524 3.71484,4.08083 -0.85727,-0.20584 -1.70276,-0.45215 -2.55532,-0.66967 -1.00887,-0.0319 -1.96613,-0.38212 -2.92434,-0.67392 0.27665,0.65868 0.56034,1.3112 0.85884,1.96062 0.42833,0.20456 0.85506,0.41294 1.28573,0.62292 2.07926,1.30035 4.12099,2.90654 5.33107,5.07223 -2.76289,-0.77154 -5.32819,-2.24545 -8.25264,-2.38143 -0.76423,-0.59326 -1.52455,-1.18495 -2.26768,-1.79683 -0.0893,0.17651 -0.27254,0.51841 -0.36416,0.68941 0.81273,1.26838 1.92435,2.30026 3.2604,3.01128 1.27544,0.68205 1.87834,2.07826 2.35622,3.36973 -1.74958,-0.66093 -3.39093,-1.59014 -5.22534,-2.01857 -1.70163,-0.32057 -2.82387,-1.69581 -4.10834,-2.72509 -0.0535,0.19992 -0.16853,0.59658 -0.22205,0.7965 1.11674,1.14243 2.30837,2.23372 3.25881,3.53056 -1.96814,0.0154 -4.07795,-0.47042 -5.89585,0.55001 -1.2425,0.50217 -1.78602,1.79281 -2.16651,2.982 1.93155,3.23449 3.41449,6.78523 5.96624,9.6145 3.93458,4.52215 8.55697,8.42675 13.45249,11.86741 1.50754,1.13742 3.5019,1.70727 4.57582,3.34784 1.1967,1.71721 2.52516,3.36555 3.36697,5.30122 1.30914,2.60354 2.45629,5.48527 4.82268,7.34005 1.7122,0.92162 3.76715,1.77814 5.71869,1.08742 1.96804,-0.48511 2.66367,-2.62309 3.53353,-4.207 1.54287,-2.7138 1.22271,-5.90825 1.37369,-8.90351 0.15438,-3.54098 0.22308,-7.37418 2.38721,-10.36162 1.30692,-1.69233 3.5134,-1.99533 5.35471,-2.79381 1.15523,-0.46507 2.07225,-1.6954 1.79441,-2.97848 -0.40385,-1.82219 -1.30644,-3.48402 -2.2973,-5.05036 1.24297,1.35616 2.55736,2.7818 3.05539,4.60585 0.32471,1.23417 1.1881,2.4778 0.72705,3.78818 -0.42745,1.51832 -1.93703,2.27893 -2.94161,3.37896 3.04769,-1.18867 5.14268,-4.4527 8.60061,-4.63037 3.26714,0.0934 6.33717,1.73943 8.79942,3.8047 1.89005,1.56757 3.72851,3.19569 5.63261,4.75086 0.52651,0.42048 1.14362,0.75093 1.81594,0.85501 1.22164,-0.29361 0.829,-1.71794 0.68776,-2.61134 0.35752,-0.56099 0.73292,-1.11022 1.10284,-1.65717 1.4319,-0.0641 2.56271,0.80829 3.62667,1.64461 0.92453,-2.14505 -0.5217,-4.22975 -1.57884,-6.01271 0.0414,-0.0692 0.11655,-0.21073 0.15824,-0.27979 1.62994,1.84237 2.98177,3.99294 3.68908,6.36259 0.33578,0.92669 -0.036,1.84808 -0.47618,2.66962 -1.62992,0.4091 -2.79137,-0.86893 -4.06264,-1.63972 0.10807,1.79325 0.69016,3.63315 -0.0268,5.38724 -0.92344,0.54053 -1.92581,1.17581 -3.04869,1.01193 -2.09869,-0.5577 -4.0473,-1.56569 -5.79501,-2.83621 -1.54421,-1.12507 -3.50265,-1.97429 -5.40978,-1.29278 1.41988,0.79459 2.72002,1.78502 3.80307,2.99973 1.34524,1.76363 4.20479,1.48912 5.2306,3.58496 0.5853,1.29416 1.53808,2.33878 2.69789,3.15048 -1.34527,1.00321 -3.13651,0.45658 -4.18702,-0.70433 -1.0022,-1.16856 -2.56829,-0.76081 -3.90447,-0.67621 -0.27438,-0.13792 -0.82158,-0.4175 -1.09599,-0.55536 -0.63844,-0.47922 -1.35433,-0.845 -2.07266,-1.1711 0.6818,1.06635 1.47981,2.05755 2.15687,3.13556 0.87819,0.49008 1.97817,0.76675 2.51871,1.69018 0.59892,0.9244 1.15412,1.88994 1.97779,2.6383 -0.0883,0.0955 -0.27027,0.28877 -0.35853,0.38425 -0.28974,0.0458 -0.85992,0.13663 -1.14966,0.18243 -0.79995,-0.61673 -1.47528,-1.50866 -2.48104,-1.7835 -1.43242,-0.0129 -2.85472,0.21767 -4.29259,0.20686 2.01451,0.84475 3.86642,2.40596 4.37649,4.61463 -0.53585,0.0731 -1.07327,0.15 -1.60835,0.23234 -0.51625,-0.22179 -1.03018,-0.43839 -1.54568,-0.65097 -0.88972,0.21047 -1.80555,0.3066 -2.71639,0.30065 -0.61997,-0.41299 -1.26108,-0.78479 -1.91395,-1.1387 -1.74365,0.67968 -3.65083,0.37558 -5.28468,-0.46016 -2.03939,-1.10793 -4.46583,-0.66316 -6.4711,0.27261 1.64858,0.36246 3.47489,0.38528 4.81262,1.56264 1.26774,1.14915 3.06881,1.27929 4.47205,2.17117 0.86545,1.08171 1.58576,2.27661 2.34277,3.43662 -0.61449,0.0774 -1.22666,0.16056 -1.84032,0.22463 -1.61476,-1.72319 -4.00428,-0.63057 -5.99356,-1.32497 0.82135,1.49342 1.44353,3.2003 2.99852,4.10821 0.0787,0.23079 0.23208,0.69049 0.31089,0.92116 -1.17323,0.005 -2.33595,0.37733 -3.50877,0.24752 -0.92219,-1.10912 -2.0389,-2.01646 -3.46555,-2.37979 -0.0551,0.15875 -0.16415,0.48529 -0.21922,0.64394 0.8847,1.65009 2.88351,2.79137 2.87569,4.80459 -1.09599,-0.2977 -2.2118,-0.49034 -3.33072,-0.67521 -1.68892,-1.14733 -3.73298,-1.7508 -4.90532,-3.53957 0.36619,1.65781 0.67163,3.3318 1.22403,4.9427 0.47104,0.99485 -0.19838,1.98149 -0.49175,2.92103 -0.31543,-0.46186 -0.62851,-0.91828 -0.93616,-1.377 -0.85365,-0.37167 -1.705,-0.73788 -2.55551,-1.11732 -0.26077,-0.76531 -0.51606,-1.53294 -0.77295,-2.29669 -0.38767,0.74774 -0.76526,1.50405 -1.1623,2.25254 -1.13498,0.71737 -2.19786,1.53618 -3.25842,2.36044 0.92301,-1.15556 2.3634,-2.45042 1.81188,-4.09714 -0.65537,-1.29983 -1.97635,-2.10422 -2.74637,-3.33278 -0.59048,-0.88936 -0.70618,-1.98041 -0.9031,-3.00477 -0.35376,-0.1428 -1.05513,-0.42133 -1.40889,-0.56413 -0.52489,1.80454 -0.61039,3.76378 -1.7006,5.36725 -3.00804,4.70845 -7.77123,7.79528 -12.10009,11.16136 -0.43106,0.41829 -1.3013,0.87178 -0.96645,1.59919 1.28604,3.27687 1.24263,6.98013 3.0275,10.07404 0.41345,0.98064 1.33649,2.07656 0.67839,3.1582 -1.22191,3.64354 -5.35371,4.47151 -8.01694,6.70148 -1.67598,1.45294 -3.27286,3.00112 -4.77426,4.63757 -0.91253,0.79359 -0.0947,1.91485 0.0924,2.84031 0.36912,0.96729 -0.0154,1.97426 -0.26441,2.91783 -1.57004,-0.32173 -3.137,-0.88635 -4.76138,-0.75983 -1.51372,0.0988 -2.75375,1.05413 -4.01102,1.79448 -1.33184,-0.56467 -2.66607,-1.11223 -4.01676,-1.63022 -0.35518,0.30873 -0.70961,0.62683 -1.06172,0.95036 1.48269,0.87423 2.98025,1.72278 4.39957,2.69799 -1.31694,1.40347 -3.07456,2.82348 -5.13666,2.51112 -3.09432,-0.58883 -6.0077,-2.04046 -8.4179,-4.06665 1.66728,-1.65539 4.23667,-2.75679 4.63003,-5.33323 2.24942,0.16184 4.72534,0.33387 6.67817,-1.02092 2.35787,-1.67504 5.25239,-2.42821 7.48555,-4.29829 2.45186,-1.86314 4.70141,-3.99785 6.57357,-6.45216 -0.75409,-2.60102 -1.56343,-5.21078 -2.65189,-7.68904 -1.27788,-1.39285 -2.82669,-2.52885 -3.95781,-4.06135 -1.29157,-1.75101 -2.37794,-3.64072 -3.68744,-5.38089 -0.55708,1.89553 -0.85511,3.85489 -1.38731,5.75593 -0.11295,0.5376 -0.54933,0.91305 -1.00015,1.17869 -2.85783,1.46874 -6.32983,0.41551 -9.1421,2.00663 -1.99304,1.01757 -3.88468,2.22073 -5.76621,3.43248 0.42922,1.41198 0.3639,2.89563 -0.28486,4.23423 -1.73832,-0.28568 -3.46292,-0.72855 -5.22936,-0.73171 -1.09458,10e-4 -2.02405,0.72474 -3.10106,0.82807 -1.27914,-0.23595 -2.38378,-1.01636 -3.64715,-1.3138 -0.18294,0.25164 -0.54184,0.74882 -0.71933,0.99817 1.24001,0.80337 2.49645,1.57722 3.7944,2.28191 -1.12152,1.40098 -2.69251,2.63861 -4.57178,2.61252 -2.93998,-0.39994 -5.84451,-1.4366 -8.09131,-3.44203 1.29564,-2.06761 3.93196,-3.15557 4.39463,-5.73567 1.24798,0.24598 2.53168,0.51545 3.81285,0.35438 1.16084,-0.27745 2.10605,-1.06237 3.15638,-1.59238 2.09174,-1.21734 4.63044,-1.20087 6.75623,-2.3457 2.75413,-1.4247 5.23023,-3.31425 7.87749,-4.92222 2.16755,-2.05477 2.81872,-5.16916 3.83763,-7.87289 -0.54854,-3.86079 -3.11832,-7.14944 -3.63876,-11.03505 -0.26929,-2.27878 -0.24187,-4.58699 -0.0566,-6.87215 2.82631,1.91383 5.90542,3.39165 8.89918,5.02494 -0.47999,2.38777 -0.52965,4.84071 -0.19143,7.25128 -8e-4,0.50603 0.34136,0.87922 0.65086,1.24373 0.35068,-1.11529 0.42982,-2.28593 0.48558,-3.44341 0.63309,-2.0502 1.14326,-4.13191 1.80743,-6.16957 -0.17857,-0.185 -0.53156,-0.5536 -0.71161,-0.73479 -5.51981,-2.96927 -11.0745,-5.97525 -16.01692,-9.85981 -2.04749,-2.00637 -4.53802,-3.48629 -6.53007,-5.55163 -3.98555,-4.1494 -7.51989,-8.6999 -10.82954,-13.40386 1.29561,-2.56039 2.76618,-5.0502 3.55491,-7.83326 -0.15387,-0.0666 -0.46026,-0.20378 -0.61421,-0.2705 -1.13677,2.80534 -2.91852,5.47246 -5.74162,6.78793 -4.19074,-1.75926 -6.95404,-5.65496 -9.47298,-9.27121 -2.01407,-2.73883 -3.92704,-5.95227 -7.32476,-7.11112 -0.99503,2.53252 -2.03519,5.06492 -2.58067,7.73821 1.81803,0.43538 3.50098,1.25027 5.11585,2.17781 -0.83106,1.87989 -2.74465,3.63027 -1.97463,5.86698 0.31872,0.15129 0.95932,0.44598 1.27804,0.59722 -1.12289,1.33711 -2.4857,2.4734 -3.38885,3.99414 0.26595,0.10292 0.79624,0.31234 1.06219,0.41513 1.19557,-1.18119 2.492,-2.25384 3.74111,-3.37724 0.71874,1.19881 1.21567,2.63359 0.78937,4.02582 -0.70245,2.33414 -2.48384,4.13787 -4.19628,5.79313 -0.64371,0.46355 -1.39469,1.37208 -2.2533,0.84469 -0.53655,-1.45982 -1.10037,-2.90806 -1.74761,-4.31762 -0.18191,-0.087 -0.5457,-0.26096 -0.72759,-0.34792 -0.40239,0.21278 -0.80087,0.42724 -1.20324,0.64008 0.82676,-1.74596 1.53027,-3.66827 1.29034,-5.62776 -0.73567,-1.76174 -2.1851,-3.06558 -3.39826,-4.49557 -0.17368,-0.71211 -0.36383,-1.41726 -0.56329,-2.12165 1.05882,-5.27817 3.87978,-10.16159 3.86877,-15.64547 -0.11862,-1.9015 1.60061,-3.00244 2.80935,-4.16023 0.71897,-0.62758 1.79997,-1.26728 2.72537,-0.68131 2.00596,1.08992 3.08994,3.25446 4.97317,4.50283 1.8162,1.28006 3.56327,2.75375 5.72786,3.40588 0.64083,-1.78937 0.79781,-3.7017 1.29082,-5.52812 0.34661,-1.30682 1.16212,-2.44249 1.39907,-3.78002 -2.34642,1.4898 -3.01672,4.24833 -3.8807,6.70264 -1.26597,-1.22076 -2.77321,-2.21337 -3.82443,-3.64131 -0.68089,-1.10217 -0.20173,-2.44594 -0.0581,-3.63119 0.84726,-4.09313 -0.29983,-8.24073 -1.75471,-12.05141 -1.32304,0.10806 -2.49362,0.75677 -3.70105,1.25047 -1.98083,0.84166 -4.13486,1.30598 -5.94016,2.53042 1.14079,1.41888 1.38271,3.23902 1.02774,4.98101 -1.93549,0.28126 -3.97256,0.93745 -4.96465,2.77946 -1.27243,0.10575 -3.12363,-0.93068 -3.82186,0.54164 1.3465,0.60677 2.70631,1.19176 4.06611,1.77676 -0.74228,1.36866 -1.38474,3.1845 -3.11335,3.53569 -2.83679,0.46453 -5.79074,-0.20327 -8.33014,-1.49494 0.55945,-1.65495 1.77576,-2.99955 2.30875,-4.65612 -0.16081,-1.11378 -1.47291,-1.26813 -2.28405,-1.78991 1.26257,0.053 2.68148,0.41315 3.82271,-0.31977 1.22698,-0.76614 2.59553,-1.73737 2.84319,-3.26949 0.20532,-0.97951 0.34009,-1.97405 0.50199,-2.95758 0.94871,-1.16328 1.74755,-2.69447 3.33607,-3.05698 3.64265,-0.99377 6.92762,-2.88235 10.33152,-4.46073 1.56412,-0.78379 2.63531,-2.27286 4.1762,-3.08863 1.81299,-0.44824 3.57771,0.61212 5.38514,0.70415 1.03763,1.54002 0.78504,3.40923 0.8707,5.15724 0.6468,2.8109 1.42261,5.68291 3.06791,8.09208 0.7446,1.14597 1.42678,2.33454 2.2018,3.46113 1.98465,-2.57619 5.1347,-3.63763 7.95247,-4.99594 3.64884,-2.48771 6.98854,-5.45283 10.93261,-7.49584 2.13773,-1.23044 4.42952,-2.18168 6.73815,-3.04021 1.34583,-0.17573 2.6752,0.42872 4.04115,0.29281 2.59392,0.0257 5.12431,-1.04675 7.01067,-2.80812 -1.32668,-0.21896 -2.3786,0.83031 -3.61727,1.09893 -2.47551,0.70075 -5.57924,0.62807 -7.43751,-1.38783 -0.58242,-0.71884 -0.92381,-1.59806 -1.34478,-2.41447 -1.9387,-0.43888 -3.93748,-1.08735 -5.93503,-0.61865 -1.90731,0.23388 -3.87172,1.30366 -5.76789,0.45696 -1.72165,-0.64062 -2.34081,-2.5678 -3.16844,-4.04565 2.10762,-0.0582 4.20623,-0.22823 6.31087,-0.32374 0.0381,-0.22874 0.11269,-0.68241 0.14923,-0.90729 -2.27026,-1.21919 -4.79041,-1.94246 -6.89468,-3.46089 0.70155,-1.29015 1.01898,-2.7263 1.51292,-4.09572 0.9516,-1.33843 2.53206,-2.36428 4.22803,-2.23133 1.52553,0.11835 3.05955,0.50695 4.58953,0.1886 3.03864,-0.52772 6.10241,-0.88257 9.18201,-1.06373 3.10831,-0.15155 6.21273,-0.56225 9.32776,-0.37195 0.81919,-1.06636 1.64764,-2.6037 3.21519,-2.47739 1.6999,0.36964 3.16265,1.39402 4.53355,2.42204 -1.27883,0.16647 -2.58514,0.15464 -3.84947,0.40844 -0.92841,0.38482 -1.33016,1.40264 -1.82078,2.20377 0.19375,0.0466 0.57334,0.13637 0.76704,0.18294 1.54568,-1.85817 4.19674,-1.42565 6.16351,-2.51258 m -18.97339,2.57323 c 0.97267,0.6593 1.42009,1.73505 1.76394,2.80969 0.68267,0.28004 1.37864,0.53834 2.08089,0.78108 0.33925,-0.69494 0.66685,-1.39459 0.9727,-2.10754 -0.2713,-0.38075 -0.54103,-0.76539 -0.81075,-1.15003 -1.3323,-0.17162 -2.6663,-0.29402 -4.00678,-0.3332 m -13.53868,0.35422 c -0.10447,0.0798 -0.31373,0.23955 -0.41829,0.31944 1.41231,0.72373 0.69226,2.20534 -0.32274,2.89429 0.83417,0.12865 1.88033,0.43792 2.47531,-0.37535 0.61425,-0.76024 10e-4,-1.62709 -0.29392,-2.37459 -0.47909,-0.15722 -0.95973,-0.31049 -1.44036,-0.46379 z"
       inkscape:connector-curvature="0"
       style="fill:#000000" />
  </g>
</svg>
